ISO-10303-21;
HEADER;
/* Generated by software containing ST-Developer
 * from STEP Tools, Inc. (www.steptools.com) 
 */

FILE_DESCRIPTION(
/* description */ (''),
/* implementation_level */ '2;1');

FILE_NAME(
/* name */ 'Back WS2812b LED strip clip.step',
/* time_stamp */ '2026-08-06T13:42:03-06:00',
/* author */ (''),
/* organization */ (''),
/* preprocessor_version */ 'ST-DEVELOPER v20.1',
/* originating_system */ 'Autodesk Translation Framework v15.8.0.0',
/* authorisation */ '');

FILE_SCHEMA (('AUTOMOTIVE_DESIGN { 1 0 10303 214 3 1 1 }'));
ENDSEC;

DATA;
#10=MECHANICAL_DESIGN_GEOMETRIC_PRESENTATION_REPRESENTATION('',(#13),#1759);
#11=SHAPE_REPRESENTATION_RELATIONSHIP('SRR','None',#1765,#12);
#12=ADVANCED_BREP_SHAPE_REPRESENTATION('',(#14),#1758);
#13=STYLED_ITEM('',(#1775),#14);
#14=MANIFOLD_SOLID_BREP('Body9',#1051);
#15=PLANE('',#1056);
#16=PLANE('',#1058);
#17=PLANE('',#1062);
#18=PLANE('',#1072);
#19=PLANE('',#1075);
#20=PLANE('',#1079);
#21=PLANE('',#1081);
#22=PLANE('',#1086);
#23=PLANE('',#1092);
#24=PLANE('',#1094);
#25=PLANE('',#1098);
#26=PLANE('',#1102);
#27=PLANE('',#1105);
#28=PLANE('',#1108);
#29=PLANE('',#1115);
#30=PLANE('',#1118);
#31=PLANE('',#1119);
#32=PLANE('',#1120);
#33=PLANE('',#1121);
#34=PLANE('',#1122);
#35=PLANE('',#1123);
#36=PLANE('',#1124);
#37=PLANE('',#1125);
#38=PLANE('',#1132);
#39=PLANE('',#1135);
#40=PLANE('',#1138);
#41=PLANE('',#1139);
#42=PLANE('',#1140);
#43=PLANE('',#1141);
#44=PLANE('',#1142);
#45=PLANE('',#1143);
#46=PLANE('',#1144);
#47=PLANE('',#1145);
#48=PLANE('',#1146);
#49=FACE_OUTER_BOUND('',#103,.T.);
#50=FACE_OUTER_BOUND('',#104,.T.);
#51=FACE_OUTER_BOUND('',#105,.T.);
#52=FACE_OUTER_BOUND('',#106,.T.);
#53=FACE_OUTER_BOUND('',#107,.T.);
#54=FACE_OUTER_BOUND('',#108,.T.);
#55=FACE_OUTER_BOUND('',#109,.T.);
#56=FACE_OUTER_BOUND('',#110,.T.);
#57=FACE_OUTER_BOUND('',#111,.T.);
#58=FACE_OUTER_BOUND('',#112,.T.);
#59=FACE_OUTER_BOUND('',#113,.T.);
#60=FACE_OUTER_BOUND('',#114,.T.);
#61=FACE_OUTER_BOUND('',#115,.T.);
#62=FACE_OUTER_BOUND('',#116,.T.);
#63=FACE_OUTER_BOUND('',#117,.T.);
#64=FACE_OUTER_BOUND('',#118,.T.);
#65=FACE_OUTER_BOUND('',#119,.T.);
#66=FACE_OUTER_BOUND('',#120,.T.);
#67=FACE_OUTER_BOUND('',#121,.T.);
#68=FACE_OUTER_BOUND('',#122,.T.);
#69=FACE_OUTER_BOUND('',#123,.T.);
#70=FACE_OUTER_BOUND('',#124,.T.);
#71=FACE_OUTER_BOUND('',#125,.T.);
#72=FACE_OUTER_BOUND('',#126,.T.);
#73=FACE_OUTER_BOUND('',#127,.T.);
#74=FACE_OUTER_BOUND('',#128,.T.);
#75=FACE_OUTER_BOUND('',#129,.T.);
#76=FACE_OUTER_BOUND('',#130,.T.);
#77=FACE_OUTER_BOUND('',#131,.T.);
#78=FACE_OUTER_BOUND('',#132,.T.);
#79=FACE_OUTER_BOUND('',#133,.T.);
#80=FACE_OUTER_BOUND('',#134,.T.);
#81=FACE_OUTER_BOUND('',#135,.T.);
#82=FACE_OUTER_BOUND('',#136,.T.);
#83=FACE_OUTER_BOUND('',#137,.T.);
#84=FACE_OUTER_BOUND('',#138,.T.);
#85=FACE_OUTER_BOUND('',#139,.T.);
#86=FACE_OUTER_BOUND('',#140,.T.);
#87=FACE_OUTER_BOUND('',#141,.T.);
#88=FACE_OUTER_BOUND('',#142,.T.);
#89=FACE_OUTER_BOUND('',#143,.T.);
#90=FACE_OUTER_BOUND('',#144,.T.);
#91=FACE_OUTER_BOUND('',#145,.T.);
#92=FACE_OUTER_BOUND('',#146,.T.);
#93=FACE_OUTER_BOUND('',#147,.T.);
#94=FACE_OUTER_BOUND('',#148,.T.);
#95=FACE_OUTER_BOUND('',#149,.T.);
#96=FACE_OUTER_BOUND('',#150,.T.);
#97=FACE_OUTER_BOUND('',#151,.T.);
#98=FACE_OUTER_BOUND('',#152,.T.);
#99=FACE_OUTER_BOUND('',#153,.T.);
#100=FACE_OUTER_BOUND('',#154,.T.);
#101=FACE_OUTER_BOUND('',#155,.T.);
#102=FACE_OUTER_BOUND('',#156,.T.);
#103=EDGE_LOOP('',(#673,#674,#675,#676));
#104=EDGE_LOOP('',(#677,#678,#679,#680,#681));
#105=EDGE_LOOP('',(#682,#683,#684,#685,#686,#687));
#106=EDGE_LOOP('',(#688,#689,#690,#691));
#107=EDGE_LOOP('',(#692,#693,#694,#695,#696,#697,#698,#699,#700,#701,#702,
#703,#704,#705,#706,#707));
#108=EDGE_LOOP('',(#708,#709,#710,#711));
#109=EDGE_LOOP('',(#712,#713,#714,#715));
#110=EDGE_LOOP('',(#716,#717,#718,#719));
#111=EDGE_LOOP('',(#720,#721,#722,#723,#724,#725));
#112=EDGE_LOOP('',(#726,#727,#728,#729));
#113=EDGE_LOOP('',(#730,#731,#732,#733,#734));
#114=EDGE_LOOP('',(#735,#736,#737,#738));
#115=EDGE_LOOP('',(#739,#740,#741,#742));
#116=EDGE_LOOP('',(#743,#744,#745,#746));
#117=EDGE_LOOP('',(#747,#748,#749,#750));
#118=EDGE_LOOP('',(#751,#752,#753,#754));
#119=EDGE_LOOP('',(#755,#756,#757,#758));
#120=EDGE_LOOP('',(#759,#760,#761,#762,#763,#764));
#121=EDGE_LOOP('',(#765,#766,#767,#768,#769,#770,#771,#772,#773,#774,#775,
#776,#777,#778,#779,#780,#781,#782,#783,#784));
#122=EDGE_LOOP('',(#785,#786,#787,#788));
#123=EDGE_LOOP('',(#789,#790,#791,#792,#793,#794));
#124=EDGE_LOOP('',(#795,#796,#797,#798));
#125=EDGE_LOOP('',(#799,#800,#801,#802));
#126=EDGE_LOOP('',(#803,#804,#805,#806));
#127=EDGE_LOOP('',(#807,#808,#809,#810,#811,#812,#813,#814,#815,#816,#817,
#818,#819,#820,#821,#822,#823,#824,#825,#826));
#128=EDGE_LOOP('',(#827,#828,#829,#830));
#129=EDGE_LOOP('',(#831,#832,#833,#834));
#130=EDGE_LOOP('',(#835,#836,#837,#838));
#131=EDGE_LOOP('',(#839,#840,#841,#842));
#132=EDGE_LOOP('',(#843,#844,#845,#846));
#133=EDGE_LOOP('',(#847,#848,#849,#850));
#134=EDGE_LOOP('',(#851,#852,#853,#854));
#135=EDGE_LOOP('',(#855,#856,#857,#858,#859,#860,#861,#862,#863,#864));
#136=EDGE_LOOP('',(#865,#866,#867,#868));
#137=EDGE_LOOP('',(#869,#870,#871,#872));
#138=EDGE_LOOP('',(#873,#874,#875,#876));
#139=EDGE_LOOP('',(#877,#878,#879,#880));
#140=EDGE_LOOP('',(#881,#882,#883,#884,#885,#886,#887,#888));
#141=EDGE_LOOP('',(#889,#890,#891,#892,#893,#894,#895,#896));
#142=EDGE_LOOP('',(#897,#898,#899,#900));
#143=EDGE_LOOP('',(#901,#902,#903,#904));
#144=EDGE_LOOP('',(#905,#906,#907,#908,#909,#910,#911,#912));
#145=EDGE_LOOP('',(#913,#914,#915,#916));
#146=EDGE_LOOP('',(#917,#918,#919,#920));
#147=EDGE_LOOP('',(#921,#922,#923,#924));
#148=EDGE_LOOP('',(#925,#926,#927,#928));
#149=EDGE_LOOP('',(#929,#930,#931,#932));
#150=EDGE_LOOP('',(#933,#934,#935,#936,#937,#938,#939,#940,#941,#942,#943,
#944,#945,#946,#947,#948));
#151=EDGE_LOOP('',(#949,#950,#951,#952));
#152=EDGE_LOOP('',(#953,#954,#955,#956));
#153=EDGE_LOOP('',(#957,#958,#959,#960,#961,#962));
#154=EDGE_LOOP('',(#963,#964,#965,#966,#967,#968));
#155=EDGE_LOOP('',(#969,#970,#971,#972));
#156=EDGE_LOOP('',(#973,#974,#975,#976));
#157=LINE('',#1455,#269);
#158=LINE('',#1458,#270);
#159=LINE('',#1461,#271);
#160=LINE('',#1463,#272);
#161=LINE('',#1466,#273);
#162=LINE('',#1469,#274);
#163=LINE('',#1471,#275);
#164=LINE('',#1473,#276);
#165=LINE('',#1475,#277);
#166=LINE('',#1476,#278);
#167=LINE('',#1482,#279);
#168=LINE('',#1485,#280);
#169=LINE('',#1489,#281);
#170=LINE('',#1493,#282);
#171=LINE('',#1497,#283);
#172=LINE('',#1501,#284);
#173=LINE('',#1505,#285);
#174=LINE('',#1509,#286);
#175=LINE('',#1513,#287);
#176=LINE('',#1517,#288);
#177=LINE('',#1518,#289);
#178=LINE('',#1521,#290);
#179=LINE('',#1524,#291);
#180=LINE('',#1527,#292);
#181=LINE('',#1529,#293);
#182=LINE('',#1531,#294);
#183=LINE('',#1532,#295);
#184=LINE('',#1537,#296);
#185=LINE('',#1541,#297);
#186=LINE('',#1545,#298);
#187=LINE('',#1546,#299);
#188=LINE('',#1549,#300);
#189=LINE('',#1550,#301);
#190=LINE('',#1554,#302);
#191=LINE('',#1557,#303);
#192=LINE('',#1560,#304);
#193=LINE('',#1562,#305);
#194=LINE('',#1566,#306);
#195=LINE('',#1572,#307);
#196=LINE('',#1575,#308);
#197=LINE('',#1578,#309);
#198=LINE('',#1580,#310);
#199=LINE('',#1582,#311);
#200=LINE('',#1585,#312);
#201=LINE('',#1588,#313);
#202=LINE('',#1590,#314);
#203=LINE('',#1592,#315);
#204=LINE('',#1594,#316);
#205=LINE('',#1596,#317);
#206=LINE('',#1598,#318);
#207=LINE('',#1600,#319);
#208=LINE('',#1601,#320);
#209=LINE('',#1603,#321);
#210=LINE('',#1605,#322);
#211=LINE('',#1607,#323);
#212=LINE('',#1609,#324);
#213=LINE('',#1611,#325);
#214=LINE('',#1613,#326);
#215=LINE('',#1615,#327);
#216=LINE('',#1616,#328);
#217=LINE('',#1622,#329);
#218=LINE('',#1625,#330);
#219=LINE('',#1629,#331);
#220=LINE('',#1630,#332);
#221=LINE('',#1633,#333);
#222=LINE('',#1636,#334);
#223=LINE('',#1638,#335);
#224=LINE('',#1641,#336);
#225=LINE('',#1644,#337);
#226=LINE('',#1647,#338);
#227=LINE('',#1649,#339);
#228=LINE('',#1651,#340);
#229=LINE('',#1653,#341);
#230=LINE('',#1655,#342);
#231=LINE('',#1657,#343);
#232=LINE('',#1659,#344);
#233=LINE('',#1660,#345);
#234=LINE('',#1662,#346);
#235=LINE('',#1664,#347);
#236=LINE('',#1665,#348);
#237=LINE('',#1667,#349);
#238=LINE('',#1669,#350);
#239=LINE('',#1670,#351);
#240=LINE('',#1674,#352);
#241=LINE('',#1677,#353);
#242=LINE('',#1678,#354);
#243=LINE('',#1683,#355);
#244=LINE('',#1690,#356);
#245=LINE('',#1692,#357);
#246=LINE('',#1693,#358);
#247=LINE('',#1697,#359);
#248=LINE('',#1700,#360);
#249=LINE('',#1702,#361);
#250=LINE('',#1703,#362);
#251=LINE('',#1705,#363);
#252=LINE('',#1707,#364);
#253=LINE('',#1710,#365);
#254=LINE('',#1716,#366);
#255=LINE('',#1721,#367);
#256=LINE('',#1724,#368);
#257=LINE('',#1727,#369);
#258=LINE('',#1729,#370);
#259=LINE('',#1730,#371);
#260=LINE('',#1731,#372);
#261=LINE('',#1735,#373);
#262=LINE('',#1738,#374);
#263=LINE('',#1739,#375);
#264=LINE('',#1745,#376);
#265=LINE('',#1748,#377);
#266=LINE('',#1749,#378);
#267=LINE('',#1752,#379);
#268=LINE('',#1754,#380);
#269=VECTOR('',#1153,10.);
#270=VECTOR('',#1156,10.);
#271=VECTOR('',#1159,10.);
#272=VECTOR('',#1160,10.);
#273=VECTOR('',#1163,10.);
#274=VECTOR('',#1166,10.);
#275=VECTOR('',#1167,10.);
#276=VECTOR('',#1168,10.);
#277=VECTOR('',#1169,10.);
#278=VECTOR('',#1170,10.);
#279=VECTOR('',#1177,10.);
#280=VECTOR('',#1180,10.);
#281=VECTOR('',#1183,10.);
#282=VECTOR('',#1186,10.);
#283=VECTOR('',#1189,10.);
#284=VECTOR('',#1192,10.);
#285=VECTOR('',#1195,10.);
#286=VECTOR('',#1198,10.);
#287=VECTOR('',#1203,10.);
#288=VECTOR('',#1208,10.);
#289=VECTOR('',#1209,10.);
#290=VECTOR('',#1212,10.);
#291=VECTOR('',#1215,10.);
#292=VECTOR('',#1218,10.);
#293=VECTOR('',#1219,10.);
#294=VECTOR('',#1220,10.);
#295=VECTOR('',#1221,10.);
#296=VECTOR('',#1226,10.);
#297=VECTOR('',#1231,10.);
#298=VECTOR('',#1234,10.);
#299=VECTOR('',#1235,10.);
#300=VECTOR('',#1238,10.);
#301=VECTOR('',#1239,10.);
#302=VECTOR('',#1244,10.);
#303=VECTOR('',#1247,10.);
#304=VECTOR('',#1250,10.);
#305=VECTOR('',#1253,10.);
#306=VECTOR('',#1258,10.);
#307=VECTOR('',#1263,10.);
#308=VECTOR('',#1266,10.);
#309=VECTOR('',#1269,10.);
#310=VECTOR('',#1270,10.);
#311=VECTOR('',#1271,10.);
#312=VECTOR('',#1274,10.);
#313=VECTOR('',#1277,10.);
#314=VECTOR('',#1278,10.);
#315=VECTOR('',#1279,10.);
#316=VECTOR('',#1280,10.);
#317=VECTOR('',#1281,10.);
#318=VECTOR('',#1282,10.);
#319=VECTOR('',#1283,10.);
#320=VECTOR('',#1284,10.);
#321=VECTOR('',#1285,10.);
#322=VECTOR('',#1286,10.);
#323=VECTOR('',#1287,10.);
#324=VECTOR('',#1288,10.);
#325=VECTOR('',#1289,10.);
#326=VECTOR('',#1290,10.);
#327=VECTOR('',#1291,10.);
#328=VECTOR('',#1292,10.);
#329=VECTOR('',#1299,10.);
#330=VECTOR('',#1302,10.);
#331=VECTOR('',#1305,10.);
#332=VECTOR('',#1306,10.);
#333=VECTOR('',#1309,10.);
#334=VECTOR('',#1312,10.);
#335=VECTOR('',#1315,10.);
#336=VECTOR('',#1318,10.);
#337=VECTOR('',#1321,10.);
#338=VECTOR('',#1324,10.);
#339=VECTOR('',#1325,10.);
#340=VECTOR('',#1326,10.);
#341=VECTOR('',#1327,10.);
#342=VECTOR('',#1328,10.);
#343=VECTOR('',#1329,10.);
#344=VECTOR('',#1330,10.);
#345=VECTOR('',#1331,10.);
#346=VECTOR('',#1332,10.);
#347=VECTOR('',#1333,10.);
#348=VECTOR('',#1334,10.);
#349=VECTOR('',#1335,10.);
#350=VECTOR('',#1336,10.);
#351=VECTOR('',#1337,10.);
#352=VECTOR('',#1342,10.);
#353=VECTOR('',#1345,10.);
#354=VECTOR('',#1346,10.);
#355=VECTOR('',#1351,10.);
#356=VECTOR('',#1360,10.);
#357=VECTOR('',#1363,10.);
#358=VECTOR('',#1364,10.);
#359=VECTOR('',#1371,10.);
#360=VECTOR('',#1374,10.);
#361=VECTOR('',#1375,10.);
#362=VECTOR('',#1376,10.);
#363=VECTOR('',#1379,10.);
#364=VECTOR('',#1382,10.);
#365=VECTOR('',#1387,10.);
#366=VECTOR('',#1394,10.);
#367=VECTOR('',#1401,10.);
#368=VECTOR('',#1404,10.);
#369=VECTOR('',#1407,10.);
#370=VECTOR('',#1410,10.);
#371=VECTOR('',#1411,10.);
#372=VECTOR('',#1412,10.);
#373=VECTOR('',#1417,10.);
#374=VECTOR('',#1420,10.);
#375=VECTOR('',#1421,10.);
#376=VECTOR('',#1432,10.);
#377=VECTOR('',#1437,10.);
#378=VECTOR('',#1438,10.);
#379=VECTOR('',#1443,10.);
#380=VECTOR('',#1446,10.);
#381=CIRCLE('',#1054,1.);
#382=CIRCLE('',#1055,1.);
#383=CIRCLE('',#1057,2.);
#384=CIRCLE('',#1060,1.);
#385=CIRCLE('',#1061,1.);
#386=CIRCLE('',#1063,1.);
#387=CIRCLE('',#1064,1.);
#388=CIRCLE('',#1065,1.);
#389=CIRCLE('',#1066,1.);
#390=CIRCLE('',#1067,2.);
#391=CIRCLE('',#1068,2.);
#392=CIRCLE('',#1069,1.);
#393=CIRCLE('',#1071,1.);
#394=CIRCLE('',#1074,1.);
#395=CIRCLE('',#1077,1.);
#396=CIRCLE('',#1078,1.);
#397=CIRCLE('',#1080,2.);
#398=CIRCLE('',#1083,1.);
#399=CIRCLE('',#1085,2.);
#400=CIRCLE('',#1088,2.);
#401=CIRCLE('',#1090,1.);
#402=CIRCLE('',#1091,1.);
#403=CIRCLE('',#1093,1.);
#404=CIRCLE('',#1096,1.);
#405=CIRCLE('',#1097,1.);
#406=CIRCLE('',#1099,1.);
#407=CIRCLE('',#1101,1.);
#408=CIRCLE('',#1104,1.);
#409=CIRCLE('',#1107,1.);
#410=CIRCLE('',#1110,1.);
#411=CIRCLE('',#1111,1.);
#412=CIRCLE('',#1113,1.);
#413=CIRCLE('',#1114,1.);
#414=CIRCLE('',#1117,1.);
#415=CIRCLE('',#1126,2.);
#416=CIRCLE('',#1127,2.);
#417=CIRCLE('',#1129,2.);
#418=CIRCLE('',#1131,2.);
#419=CIRCLE('',#1134,2.);
#420=CIRCLE('',#1137,2.);
#421=VERTEX_POINT('',#1451);
#422=VERTEX_POINT('',#1452);
#423=VERTEX_POINT('',#1454);
#424=VERTEX_POINT('',#1456);
#425=VERTEX_POINT('',#1460);
#426=VERTEX_POINT('',#1462);
#427=VERTEX_POINT('',#1464);
#428=VERTEX_POINT('',#1468);
#429=VERTEX_POINT('',#1470);
#430=VERTEX_POINT('',#1472);
#431=VERTEX_POINT('',#1474);
#432=VERTEX_POINT('',#1478);
#433=VERTEX_POINT('',#1480);
#434=VERTEX_POINT('',#1484);
#435=VERTEX_POINT('',#1486);
#436=VERTEX_POINT('',#1488);
#437=VERTEX_POINT('',#1490);
#438=VERTEX_POINT('',#1492);
#439=VERTEX_POINT('',#1494);
#440=VERTEX_POINT('',#1496);
#441=VERTEX_POINT('',#1498);
#442=VERTEX_POINT('',#1500);
#443=VERTEX_POINT('',#1502);
#444=VERTEX_POINT('',#1504);
#445=VERTEX_POINT('',#1506);
#446=VERTEX_POINT('',#1508);
#447=VERTEX_POINT('',#1512);
#448=VERTEX_POINT('',#1516);
#449=VERTEX_POINT('',#1520);
#450=VERTEX_POINT('',#1522);
#451=VERTEX_POINT('',#1526);
#452=VERTEX_POINT('',#1528);
#453=VERTEX_POINT('',#1530);
#454=VERTEX_POINT('',#1534);
#455=VERTEX_POINT('',#1536);
#456=VERTEX_POINT('',#1540);
#457=VERTEX_POINT('',#1542);
#458=VERTEX_POINT('',#1544);
#459=VERTEX_POINT('',#1548);
#460=VERTEX_POINT('',#1552);
#461=VERTEX_POINT('',#1556);
#462=VERTEX_POINT('',#1558);
#463=VERTEX_POINT('',#1564);
#464=VERTEX_POINT('',#1568);
#465=VERTEX_POINT('',#1569);
#466=VERTEX_POINT('',#1571);
#467=VERTEX_POINT('',#1573);
#468=VERTEX_POINT('',#1577);
#469=VERTEX_POINT('',#1579);
#470=VERTEX_POINT('',#1581);
#471=VERTEX_POINT('',#1583);
#472=VERTEX_POINT('',#1587);
#473=VERTEX_POINT('',#1589);
#474=VERTEX_POINT('',#1591);
#475=VERTEX_POINT('',#1593);
#476=VERTEX_POINT('',#1595);
#477=VERTEX_POINT('',#1597);
#478=VERTEX_POINT('',#1599);
#479=VERTEX_POINT('',#1602);
#480=VERTEX_POINT('',#1604);
#481=VERTEX_POINT('',#1606);
#482=VERTEX_POINT('',#1608);
#483=VERTEX_POINT('',#1610);
#484=VERTEX_POINT('',#1612);
#485=VERTEX_POINT('',#1614);
#486=VERTEX_POINT('',#1618);
#487=VERTEX_POINT('',#1620);
#488=VERTEX_POINT('',#1624);
#489=VERTEX_POINT('',#1626);
#490=VERTEX_POINT('',#1628);
#491=VERTEX_POINT('',#1632);
#492=VERTEX_POINT('',#1634);
#493=VERTEX_POINT('',#1640);
#494=VERTEX_POINT('',#1642);
#495=VERTEX_POINT('',#1646);
#496=VERTEX_POINT('',#1648);
#497=VERTEX_POINT('',#1650);
#498=VERTEX_POINT('',#1652);
#499=VERTEX_POINT('',#1654);
#500=VERTEX_POINT('',#1656);
#501=VERTEX_POINT('',#1658);
#502=VERTEX_POINT('',#1661);
#503=VERTEX_POINT('',#1663);
#504=VERTEX_POINT('',#1666);
#505=VERTEX_POINT('',#1668);
#506=VERTEX_POINT('',#1672);
#507=VERTEX_POINT('',#1676);
#508=VERTEX_POINT('',#1680);
#509=VERTEX_POINT('',#1682);
#510=VERTEX_POINT('',#1686);
#511=VERTEX_POINT('',#1688);
#512=VERTEX_POINT('',#1699);
#513=VERTEX_POINT('',#1701);
#514=VERTEX_POINT('',#1713);
#515=VERTEX_POINT('',#1715);
#516=VERTEX_POINT('',#1719);
#517=VERTEX_POINT('',#1723);
#518=VERTEX_POINT('',#1725);
#519=VERTEX_POINT('',#1733);
#520=VERTEX_POINT('',#1737);
#521=EDGE_CURVE('',#421,#422,#381,.T.);
#522=EDGE_CURVE('',#422,#423,#157,.T.);
#523=EDGE_CURVE('',#423,#424,#382,.T.);
#524=EDGE_CURVE('',#424,#421,#158,.T.);
#525=EDGE_CURVE('',#423,#425,#159,.T.);
#526=EDGE_CURVE('',#425,#426,#160,.T.);
#527=EDGE_CURVE('',#427,#426,#383,.T.);
#528=EDGE_CURVE('',#424,#427,#161,.T.);
#529=EDGE_CURVE('',#422,#428,#162,.T.);
#530=EDGE_CURVE('',#429,#428,#163,.T.);
#531=EDGE_CURVE('',#429,#430,#164,.T.);
#532=EDGE_CURVE('',#431,#430,#165,.T.);
#533=EDGE_CURVE('',#431,#423,#166,.T.);
#534=EDGE_CURVE('',#432,#429,#384,.T.);
#535=EDGE_CURVE('',#428,#433,#385,.T.);
#536=EDGE_CURVE('',#433,#432,#167,.T.);
#537=EDGE_CURVE('',#432,#434,#168,.T.);
#538=EDGE_CURVE('',#435,#434,#386,.F.);
#539=EDGE_CURVE('',#436,#435,#169,.T.);
#540=EDGE_CURVE('',#437,#436,#387,.F.);
#541=EDGE_CURVE('',#438,#437,#170,.T.);
#542=EDGE_CURVE('',#439,#438,#388,.T.);
#543=EDGE_CURVE('',#440,#439,#171,.T.);
#544=EDGE_CURVE('',#441,#440,#389,.T.);
#545=EDGE_CURVE('',#441,#442,#172,.T.);
#546=EDGE_CURVE('',#443,#442,#390,.T.);
#547=EDGE_CURVE('',#443,#444,#173,.T.);
#548=EDGE_CURVE('',#445,#444,#391,.T.);
#549=EDGE_CURVE('',#445,#446,#174,.T.);
#550=EDGE_CURVE('',#430,#446,#392,.T.);
#551=EDGE_CURVE('',#446,#447,#175,.T.);
#552=EDGE_CURVE('',#447,#431,#393,.T.);
#553=EDGE_CURVE('',#448,#445,#176,.T.);
#554=EDGE_CURVE('',#447,#448,#177,.T.);
#555=EDGE_CURVE('',#440,#449,#178,.T.);
#556=EDGE_CURVE('',#449,#450,#394,.T.);
#557=EDGE_CURVE('',#450,#441,#179,.T.);
#558=EDGE_CURVE('',#451,#439,#180,.T.);
#559=EDGE_CURVE('',#451,#452,#181,.T.);
#560=EDGE_CURVE('',#453,#452,#182,.T.);
#561=EDGE_CURVE('',#453,#449,#183,.T.);
#562=EDGE_CURVE('',#452,#454,#395,.T.);
#563=EDGE_CURVE('',#454,#455,#184,.T.);
#564=EDGE_CURVE('',#455,#453,#396,.T.);
#565=EDGE_CURVE('',#455,#456,#185,.T.);
#566=EDGE_CURVE('',#457,#456,#397,.T.);
#567=EDGE_CURVE('',#457,#458,#186,.T.);
#568=EDGE_CURVE('',#453,#458,#187,.T.);
#569=EDGE_CURVE('',#454,#459,#188,.T.);
#570=EDGE_CURVE('',#456,#459,#189,.T.);
#571=EDGE_CURVE('',#460,#451,#398,.T.);
#572=EDGE_CURVE('',#438,#460,#190,.T.);
#573=EDGE_CURVE('',#442,#461,#191,.T.);
#574=EDGE_CURVE('',#461,#462,#399,.T.);
#575=EDGE_CURVE('',#462,#443,#192,.T.);
#576=EDGE_CURVE('',#461,#450,#193,.T.);
#577=EDGE_CURVE('',#463,#448,#400,.T.);
#578=EDGE_CURVE('',#444,#463,#194,.T.);
#579=EDGE_CURVE('',#464,#465,#401,.T.);
#580=EDGE_CURVE('',#465,#466,#195,.T.);
#581=EDGE_CURVE('',#466,#467,#402,.F.);
#582=EDGE_CURVE('',#467,#464,#196,.T.);
#583=EDGE_CURVE('',#464,#468,#197,.T.);
#584=EDGE_CURVE('',#469,#468,#198,.T.);
#585=EDGE_CURVE('',#469,#470,#199,.T.);
#586=EDGE_CURVE('',#471,#470,#403,.T.);
#587=EDGE_CURVE('',#471,#465,#200,.T.);
#588=EDGE_CURVE('',#472,#433,#201,.T.);
#589=EDGE_CURVE('',#473,#472,#202,.T.);
#590=EDGE_CURVE('',#474,#473,#203,.T.);
#591=EDGE_CURVE('',#475,#474,#204,.T.);
#592=EDGE_CURVE('',#476,#475,#205,.T.);
#593=EDGE_CURVE('',#477,#476,#206,.T.);
#594=EDGE_CURVE('',#478,#477,#207,.T.);
#595=EDGE_CURVE('',#468,#478,#208,.T.);
#596=EDGE_CURVE('',#479,#467,#209,.T.);
#597=EDGE_CURVE('',#480,#479,#210,.T.);
#598=EDGE_CURVE('',#481,#480,#211,.T.);
#599=EDGE_CURVE('',#482,#481,#212,.T.);
#600=EDGE_CURVE('',#483,#482,#213,.T.);
#601=EDGE_CURVE('',#484,#483,#214,.T.);
#602=EDGE_CURVE('',#485,#484,#215,.T.);
#603=EDGE_CURVE('',#434,#485,#216,.T.);
#604=EDGE_CURVE('',#486,#475,#404,.T.);
#605=EDGE_CURVE('',#474,#487,#405,.F.);
#606=EDGE_CURVE('',#487,#486,#217,.T.);
#607=EDGE_CURVE('',#488,#486,#218,.T.);
#608=EDGE_CURVE('',#489,#488,#406,.T.);
#609=EDGE_CURVE('',#489,#490,#219,.T.);
#610=EDGE_CURVE('',#490,#476,#220,.T.);
#611=EDGE_CURVE('',#470,#491,#221,.T.);
#612=EDGE_CURVE('',#491,#492,#407,.F.);
#613=EDGE_CURVE('',#492,#471,#222,.T.);
#614=EDGE_CURVE('',#466,#492,#223,.T.);
#615=EDGE_CURVE('',#488,#493,#224,.T.);
#616=EDGE_CURVE('',#493,#494,#408,.F.);
#617=EDGE_CURVE('',#494,#489,#225,.T.);
#618=EDGE_CURVE('',#495,#437,#226,.T.);
#619=EDGE_CURVE('',#495,#496,#227,.T.);
#620=EDGE_CURVE('',#496,#497,#228,.T.);
#621=EDGE_CURVE('',#497,#498,#229,.T.);
#622=EDGE_CURVE('',#499,#498,#230,.T.);
#623=EDGE_CURVE('',#499,#500,#231,.T.);
#624=EDGE_CURVE('',#501,#500,#232,.T.);
#625=EDGE_CURVE('',#501,#491,#233,.T.);
#626=EDGE_CURVE('',#469,#502,#234,.T.);
#627=EDGE_CURVE('',#503,#502,#235,.T.);
#628=EDGE_CURVE('',#490,#503,#236,.T.);
#629=EDGE_CURVE('',#494,#504,#237,.T.);
#630=EDGE_CURVE('',#505,#504,#238,.T.);
#631=EDGE_CURVE('',#460,#505,#239,.T.);
#632=EDGE_CURVE('',#506,#495,#409,.T.);
#633=EDGE_CURVE('',#436,#506,#240,.T.);
#634=EDGE_CURVE('',#507,#435,#241,.T.);
#635=EDGE_CURVE('',#506,#507,#242,.T.);
#636=EDGE_CURVE('',#500,#508,#410,.T.);
#637=EDGE_CURVE('',#508,#509,#243,.T.);
#638=EDGE_CURVE('',#509,#501,#411,.F.);
#639=EDGE_CURVE('',#510,#480,#412,.T.);
#640=EDGE_CURVE('',#479,#511,#413,.F.);
#641=EDGE_CURVE('',#511,#510,#244,.T.);
#642=EDGE_CURVE('',#508,#510,#245,.T.);
#643=EDGE_CURVE('',#509,#511,#246,.T.);
#644=EDGE_CURVE('',#485,#507,#414,.T.);
#645=EDGE_CURVE('',#463,#462,#247,.T.);
#646=EDGE_CURVE('',#449,#512,#248,.T.);
#647=EDGE_CURVE('',#512,#513,#249,.T.);
#648=EDGE_CURVE('',#431,#513,#250,.T.);
#649=EDGE_CURVE('',#502,#478,#251,.T.);
#650=EDGE_CURVE('',#503,#477,#252,.T.);
#651=EDGE_CURVE('',#493,#487,#253,.T.);
#652=EDGE_CURVE('',#514,#473,#415,.T.);
#653=EDGE_CURVE('',#515,#514,#254,.T.);
#654=EDGE_CURVE('',#504,#515,#416,.T.);
#655=EDGE_CURVE('',#459,#516,#417,.T.);
#656=EDGE_CURVE('',#516,#457,#255,.T.);
#657=EDGE_CURVE('',#426,#517,#256,.T.);
#658=EDGE_CURVE('',#517,#518,#418,.T.);
#659=EDGE_CURVE('',#518,#427,#257,.T.);
#660=EDGE_CURVE('',#516,#517,#258,.T.);
#661=EDGE_CURVE('',#513,#425,#259,.T.);
#662=EDGE_CURVE('',#458,#512,#260,.T.);
#663=EDGE_CURVE('',#472,#519,#419,.T.);
#664=EDGE_CURVE('',#519,#514,#261,.T.);
#665=EDGE_CURVE('',#519,#520,#262,.T.);
#666=EDGE_CURVE('',#515,#520,#263,.T.);
#667=EDGE_CURVE('',#520,#505,#420,.T.);
#668=EDGE_CURVE('',#421,#518,#264,.T.);
#669=EDGE_CURVE('',#499,#481,#265,.T.);
#670=EDGE_CURVE('',#498,#482,#266,.T.);
#671=EDGE_CURVE('',#496,#484,#267,.T.);
#672=EDGE_CURVE('',#497,#483,#268,.T.);
#673=ORIENTED_EDGE('',*,*,#521,.T.);
#674=ORIENTED_EDGE('',*,*,#522,.T.);
#675=ORIENTED_EDGE('',*,*,#523,.T.);
#676=ORIENTED_EDGE('',*,*,#524,.T.);
#677=ORIENTED_EDGE('',*,*,#523,.F.);
#678=ORIENTED_EDGE('',*,*,#525,.T.);
#679=ORIENTED_EDGE('',*,*,#526,.T.);
#680=ORIENTED_EDGE('',*,*,#527,.F.);
#681=ORIENTED_EDGE('',*,*,#528,.F.);
#682=ORIENTED_EDGE('',*,*,#522,.F.);
#683=ORIENTED_EDGE('',*,*,#529,.T.);
#684=ORIENTED_EDGE('',*,*,#530,.F.);
#685=ORIENTED_EDGE('',*,*,#531,.T.);
#686=ORIENTED_EDGE('',*,*,#532,.F.);
#687=ORIENTED_EDGE('',*,*,#533,.T.);
#688=ORIENTED_EDGE('',*,*,#534,.T.);
#689=ORIENTED_EDGE('',*,*,#530,.T.);
#690=ORIENTED_EDGE('',*,*,#535,.T.);
#691=ORIENTED_EDGE('',*,*,#536,.T.);
#692=ORIENTED_EDGE('',*,*,#534,.F.);
#693=ORIENTED_EDGE('',*,*,#537,.T.);
#694=ORIENTED_EDGE('',*,*,#538,.F.);
#695=ORIENTED_EDGE('',*,*,#539,.F.);
#696=ORIENTED_EDGE('',*,*,#540,.F.);
#697=ORIENTED_EDGE('',*,*,#541,.F.);
#698=ORIENTED_EDGE('',*,*,#542,.F.);
#699=ORIENTED_EDGE('',*,*,#543,.F.);
#700=ORIENTED_EDGE('',*,*,#544,.F.);
#701=ORIENTED_EDGE('',*,*,#545,.T.);
#702=ORIENTED_EDGE('',*,*,#546,.F.);
#703=ORIENTED_EDGE('',*,*,#547,.T.);
#704=ORIENTED_EDGE('',*,*,#548,.F.);
#705=ORIENTED_EDGE('',*,*,#549,.T.);
#706=ORIENTED_EDGE('',*,*,#550,.F.);
#707=ORIENTED_EDGE('',*,*,#531,.F.);
#708=ORIENTED_EDGE('',*,*,#550,.T.);
#709=ORIENTED_EDGE('',*,*,#551,.T.);
#710=ORIENTED_EDGE('',*,*,#552,.T.);
#711=ORIENTED_EDGE('',*,*,#532,.T.);
#712=ORIENTED_EDGE('',*,*,#551,.F.);
#713=ORIENTED_EDGE('',*,*,#549,.F.);
#714=ORIENTED_EDGE('',*,*,#553,.F.);
#715=ORIENTED_EDGE('',*,*,#554,.F.);
#716=ORIENTED_EDGE('',*,*,#544,.T.);
#717=ORIENTED_EDGE('',*,*,#555,.T.);
#718=ORIENTED_EDGE('',*,*,#556,.T.);
#719=ORIENTED_EDGE('',*,*,#557,.T.);
#720=ORIENTED_EDGE('',*,*,#555,.F.);
#721=ORIENTED_EDGE('',*,*,#543,.T.);
#722=ORIENTED_EDGE('',*,*,#558,.F.);
#723=ORIENTED_EDGE('',*,*,#559,.T.);
#724=ORIENTED_EDGE('',*,*,#560,.F.);
#725=ORIENTED_EDGE('',*,*,#561,.T.);
#726=ORIENTED_EDGE('',*,*,#562,.T.);
#727=ORIENTED_EDGE('',*,*,#563,.T.);
#728=ORIENTED_EDGE('',*,*,#564,.T.);
#729=ORIENTED_EDGE('',*,*,#560,.T.);
#730=ORIENTED_EDGE('',*,*,#564,.F.);
#731=ORIENTED_EDGE('',*,*,#565,.T.);
#732=ORIENTED_EDGE('',*,*,#566,.F.);
#733=ORIENTED_EDGE('',*,*,#567,.T.);
#734=ORIENTED_EDGE('',*,*,#568,.F.);
#735=ORIENTED_EDGE('',*,*,#563,.F.);
#736=ORIENTED_EDGE('',*,*,#569,.T.);
#737=ORIENTED_EDGE('',*,*,#570,.F.);
#738=ORIENTED_EDGE('',*,*,#565,.F.);
#739=ORIENTED_EDGE('',*,*,#571,.T.);
#740=ORIENTED_EDGE('',*,*,#558,.T.);
#741=ORIENTED_EDGE('',*,*,#542,.T.);
#742=ORIENTED_EDGE('',*,*,#572,.T.);
#743=ORIENTED_EDGE('',*,*,#546,.T.);
#744=ORIENTED_EDGE('',*,*,#573,.T.);
#745=ORIENTED_EDGE('',*,*,#574,.T.);
#746=ORIENTED_EDGE('',*,*,#575,.T.);
#747=ORIENTED_EDGE('',*,*,#557,.F.);
#748=ORIENTED_EDGE('',*,*,#576,.F.);
#749=ORIENTED_EDGE('',*,*,#573,.F.);
#750=ORIENTED_EDGE('',*,*,#545,.F.);
#751=ORIENTED_EDGE('',*,*,#577,.T.);
#752=ORIENTED_EDGE('',*,*,#553,.T.);
#753=ORIENTED_EDGE('',*,*,#548,.T.);
#754=ORIENTED_EDGE('',*,*,#578,.T.);
#755=ORIENTED_EDGE('',*,*,#579,.T.);
#756=ORIENTED_EDGE('',*,*,#580,.T.);
#757=ORIENTED_EDGE('',*,*,#581,.T.);
#758=ORIENTED_EDGE('',*,*,#582,.T.);
#759=ORIENTED_EDGE('',*,*,#579,.F.);
#760=ORIENTED_EDGE('',*,*,#583,.T.);
#761=ORIENTED_EDGE('',*,*,#584,.F.);
#762=ORIENTED_EDGE('',*,*,#585,.T.);
#763=ORIENTED_EDGE('',*,*,#586,.F.);
#764=ORIENTED_EDGE('',*,*,#587,.T.);
#765=ORIENTED_EDGE('',*,*,#536,.F.);
#766=ORIENTED_EDGE('',*,*,#588,.F.);
#767=ORIENTED_EDGE('',*,*,#589,.F.);
#768=ORIENTED_EDGE('',*,*,#590,.F.);
#769=ORIENTED_EDGE('',*,*,#591,.F.);
#770=ORIENTED_EDGE('',*,*,#592,.F.);
#771=ORIENTED_EDGE('',*,*,#593,.F.);
#772=ORIENTED_EDGE('',*,*,#594,.F.);
#773=ORIENTED_EDGE('',*,*,#595,.F.);
#774=ORIENTED_EDGE('',*,*,#583,.F.);
#775=ORIENTED_EDGE('',*,*,#582,.F.);
#776=ORIENTED_EDGE('',*,*,#596,.F.);
#777=ORIENTED_EDGE('',*,*,#597,.F.);
#778=ORIENTED_EDGE('',*,*,#598,.F.);
#779=ORIENTED_EDGE('',*,*,#599,.F.);
#780=ORIENTED_EDGE('',*,*,#600,.F.);
#781=ORIENTED_EDGE('',*,*,#601,.F.);
#782=ORIENTED_EDGE('',*,*,#602,.F.);
#783=ORIENTED_EDGE('',*,*,#603,.F.);
#784=ORIENTED_EDGE('',*,*,#537,.F.);
#785=ORIENTED_EDGE('',*,*,#604,.T.);
#786=ORIENTED_EDGE('',*,*,#591,.T.);
#787=ORIENTED_EDGE('',*,*,#605,.T.);
#788=ORIENTED_EDGE('',*,*,#606,.T.);
#789=ORIENTED_EDGE('',*,*,#604,.F.);
#790=ORIENTED_EDGE('',*,*,#607,.F.);
#791=ORIENTED_EDGE('',*,*,#608,.F.);
#792=ORIENTED_EDGE('',*,*,#609,.T.);
#793=ORIENTED_EDGE('',*,*,#610,.T.);
#794=ORIENTED_EDGE('',*,*,#592,.T.);
#795=ORIENTED_EDGE('',*,*,#586,.T.);
#796=ORIENTED_EDGE('',*,*,#611,.T.);
#797=ORIENTED_EDGE('',*,*,#612,.T.);
#798=ORIENTED_EDGE('',*,*,#613,.T.);
#799=ORIENTED_EDGE('',*,*,#580,.F.);
#800=ORIENTED_EDGE('',*,*,#587,.F.);
#801=ORIENTED_EDGE('',*,*,#613,.F.);
#802=ORIENTED_EDGE('',*,*,#614,.F.);
#803=ORIENTED_EDGE('',*,*,#608,.T.);
#804=ORIENTED_EDGE('',*,*,#615,.T.);
#805=ORIENTED_EDGE('',*,*,#616,.T.);
#806=ORIENTED_EDGE('',*,*,#617,.T.);
#807=ORIENTED_EDGE('',*,*,#572,.F.);
#808=ORIENTED_EDGE('',*,*,#541,.T.);
#809=ORIENTED_EDGE('',*,*,#618,.F.);
#810=ORIENTED_EDGE('',*,*,#619,.T.);
#811=ORIENTED_EDGE('',*,*,#620,.T.);
#812=ORIENTED_EDGE('',*,*,#621,.T.);
#813=ORIENTED_EDGE('',*,*,#622,.F.);
#814=ORIENTED_EDGE('',*,*,#623,.T.);
#815=ORIENTED_EDGE('',*,*,#624,.F.);
#816=ORIENTED_EDGE('',*,*,#625,.T.);
#817=ORIENTED_EDGE('',*,*,#611,.F.);
#818=ORIENTED_EDGE('',*,*,#585,.F.);
#819=ORIENTED_EDGE('',*,*,#626,.T.);
#820=ORIENTED_EDGE('',*,*,#627,.F.);
#821=ORIENTED_EDGE('',*,*,#628,.F.);
#822=ORIENTED_EDGE('',*,*,#609,.F.);
#823=ORIENTED_EDGE('',*,*,#617,.F.);
#824=ORIENTED_EDGE('',*,*,#629,.T.);
#825=ORIENTED_EDGE('',*,*,#630,.F.);
#826=ORIENTED_EDGE('',*,*,#631,.F.);
#827=ORIENTED_EDGE('',*,*,#632,.T.);
#828=ORIENTED_EDGE('',*,*,#618,.T.);
#829=ORIENTED_EDGE('',*,*,#540,.T.);
#830=ORIENTED_EDGE('',*,*,#633,.T.);
#831=ORIENTED_EDGE('',*,*,#633,.F.);
#832=ORIENTED_EDGE('',*,*,#539,.T.);
#833=ORIENTED_EDGE('',*,*,#634,.F.);
#834=ORIENTED_EDGE('',*,*,#635,.F.);
#835=ORIENTED_EDGE('',*,*,#636,.T.);
#836=ORIENTED_EDGE('',*,*,#637,.T.);
#837=ORIENTED_EDGE('',*,*,#638,.T.);
#838=ORIENTED_EDGE('',*,*,#624,.T.);
#839=ORIENTED_EDGE('',*,*,#639,.T.);
#840=ORIENTED_EDGE('',*,*,#597,.T.);
#841=ORIENTED_EDGE('',*,*,#640,.T.);
#842=ORIENTED_EDGE('',*,*,#641,.T.);
#843=ORIENTED_EDGE('',*,*,#637,.F.);
#844=ORIENTED_EDGE('',*,*,#642,.T.);
#845=ORIENTED_EDGE('',*,*,#641,.F.);
#846=ORIENTED_EDGE('',*,*,#643,.F.);
#847=ORIENTED_EDGE('',*,*,#644,.T.);
#848=ORIENTED_EDGE('',*,*,#634,.T.);
#849=ORIENTED_EDGE('',*,*,#538,.T.);
#850=ORIENTED_EDGE('',*,*,#603,.T.);
#851=ORIENTED_EDGE('',*,*,#575,.F.);
#852=ORIENTED_EDGE('',*,*,#645,.F.);
#853=ORIENTED_EDGE('',*,*,#578,.F.);
#854=ORIENTED_EDGE('',*,*,#547,.F.);
#855=ORIENTED_EDGE('',*,*,#552,.F.);
#856=ORIENTED_EDGE('',*,*,#554,.T.);
#857=ORIENTED_EDGE('',*,*,#577,.F.);
#858=ORIENTED_EDGE('',*,*,#645,.T.);
#859=ORIENTED_EDGE('',*,*,#574,.F.);
#860=ORIENTED_EDGE('',*,*,#576,.T.);
#861=ORIENTED_EDGE('',*,*,#556,.F.);
#862=ORIENTED_EDGE('',*,*,#646,.T.);
#863=ORIENTED_EDGE('',*,*,#647,.T.);
#864=ORIENTED_EDGE('',*,*,#648,.F.);
#865=ORIENTED_EDGE('',*,*,#595,.T.);
#866=ORIENTED_EDGE('',*,*,#649,.F.);
#867=ORIENTED_EDGE('',*,*,#626,.F.);
#868=ORIENTED_EDGE('',*,*,#584,.T.);
#869=ORIENTED_EDGE('',*,*,#594,.T.);
#870=ORIENTED_EDGE('',*,*,#650,.F.);
#871=ORIENTED_EDGE('',*,*,#627,.T.);
#872=ORIENTED_EDGE('',*,*,#649,.T.);
#873=ORIENTED_EDGE('',*,*,#593,.T.);
#874=ORIENTED_EDGE('',*,*,#610,.F.);
#875=ORIENTED_EDGE('',*,*,#628,.T.);
#876=ORIENTED_EDGE('',*,*,#650,.T.);
#877=ORIENTED_EDGE('',*,*,#606,.F.);
#878=ORIENTED_EDGE('',*,*,#651,.F.);
#879=ORIENTED_EDGE('',*,*,#615,.F.);
#880=ORIENTED_EDGE('',*,*,#607,.T.);
#881=ORIENTED_EDGE('',*,*,#614,.T.);
#882=ORIENTED_EDGE('',*,*,#612,.F.);
#883=ORIENTED_EDGE('',*,*,#625,.F.);
#884=ORIENTED_EDGE('',*,*,#638,.F.);
#885=ORIENTED_EDGE('',*,*,#643,.T.);
#886=ORIENTED_EDGE('',*,*,#640,.F.);
#887=ORIENTED_EDGE('',*,*,#596,.T.);
#888=ORIENTED_EDGE('',*,*,#581,.F.);
#889=ORIENTED_EDGE('',*,*,#651,.T.);
#890=ORIENTED_EDGE('',*,*,#605,.F.);
#891=ORIENTED_EDGE('',*,*,#590,.T.);
#892=ORIENTED_EDGE('',*,*,#652,.F.);
#893=ORIENTED_EDGE('',*,*,#653,.F.);
#894=ORIENTED_EDGE('',*,*,#654,.F.);
#895=ORIENTED_EDGE('',*,*,#629,.F.);
#896=ORIENTED_EDGE('',*,*,#616,.F.);
#897=ORIENTED_EDGE('',*,*,#566,.T.);
#898=ORIENTED_EDGE('',*,*,#570,.T.);
#899=ORIENTED_EDGE('',*,*,#655,.T.);
#900=ORIENTED_EDGE('',*,*,#656,.T.);
#901=ORIENTED_EDGE('',*,*,#527,.T.);
#902=ORIENTED_EDGE('',*,*,#657,.T.);
#903=ORIENTED_EDGE('',*,*,#658,.T.);
#904=ORIENTED_EDGE('',*,*,#659,.T.);
#905=ORIENTED_EDGE('',*,*,#656,.F.);
#906=ORIENTED_EDGE('',*,*,#660,.T.);
#907=ORIENTED_EDGE('',*,*,#657,.F.);
#908=ORIENTED_EDGE('',*,*,#526,.F.);
#909=ORIENTED_EDGE('',*,*,#661,.F.);
#910=ORIENTED_EDGE('',*,*,#647,.F.);
#911=ORIENTED_EDGE('',*,*,#662,.F.);
#912=ORIENTED_EDGE('',*,*,#567,.F.);
#913=ORIENTED_EDGE('',*,*,#663,.T.);
#914=ORIENTED_EDGE('',*,*,#664,.T.);
#915=ORIENTED_EDGE('',*,*,#652,.T.);
#916=ORIENTED_EDGE('',*,*,#589,.T.);
#917=ORIENTED_EDGE('',*,*,#664,.F.);
#918=ORIENTED_EDGE('',*,*,#665,.T.);
#919=ORIENTED_EDGE('',*,*,#666,.F.);
#920=ORIENTED_EDGE('',*,*,#653,.T.);
#921=ORIENTED_EDGE('',*,*,#654,.T.);
#922=ORIENTED_EDGE('',*,*,#666,.T.);
#923=ORIENTED_EDGE('',*,*,#667,.T.);
#924=ORIENTED_EDGE('',*,*,#630,.T.);
#925=ORIENTED_EDGE('',*,*,#662,.T.);
#926=ORIENTED_EDGE('',*,*,#646,.F.);
#927=ORIENTED_EDGE('',*,*,#561,.F.);
#928=ORIENTED_EDGE('',*,*,#568,.T.);
#929=ORIENTED_EDGE('',*,*,#661,.T.);
#930=ORIENTED_EDGE('',*,*,#525,.F.);
#931=ORIENTED_EDGE('',*,*,#533,.F.);
#932=ORIENTED_EDGE('',*,*,#648,.T.);
#933=ORIENTED_EDGE('',*,*,#521,.F.);
#934=ORIENTED_EDGE('',*,*,#668,.T.);
#935=ORIENTED_EDGE('',*,*,#658,.F.);
#936=ORIENTED_EDGE('',*,*,#660,.F.);
#937=ORIENTED_EDGE('',*,*,#655,.F.);
#938=ORIENTED_EDGE('',*,*,#569,.F.);
#939=ORIENTED_EDGE('',*,*,#562,.F.);
#940=ORIENTED_EDGE('',*,*,#559,.F.);
#941=ORIENTED_EDGE('',*,*,#571,.F.);
#942=ORIENTED_EDGE('',*,*,#631,.T.);
#943=ORIENTED_EDGE('',*,*,#667,.F.);
#944=ORIENTED_EDGE('',*,*,#665,.F.);
#945=ORIENTED_EDGE('',*,*,#663,.F.);
#946=ORIENTED_EDGE('',*,*,#588,.T.);
#947=ORIENTED_EDGE('',*,*,#535,.F.);
#948=ORIENTED_EDGE('',*,*,#529,.F.);
#949=ORIENTED_EDGE('',*,*,#524,.F.);
#950=ORIENTED_EDGE('',*,*,#528,.T.);
#951=ORIENTED_EDGE('',*,*,#659,.F.);
#952=ORIENTED_EDGE('',*,*,#668,.F.);
#953=ORIENTED_EDGE('',*,*,#599,.T.);
#954=ORIENTED_EDGE('',*,*,#669,.F.);
#955=ORIENTED_EDGE('',*,*,#622,.T.);
#956=ORIENTED_EDGE('',*,*,#670,.T.);
#957=ORIENTED_EDGE('',*,*,#636,.F.);
#958=ORIENTED_EDGE('',*,*,#623,.F.);
#959=ORIENTED_EDGE('',*,*,#669,.T.);
#960=ORIENTED_EDGE('',*,*,#598,.T.);
#961=ORIENTED_EDGE('',*,*,#639,.F.);
#962=ORIENTED_EDGE('',*,*,#642,.F.);
#963=ORIENTED_EDGE('',*,*,#632,.F.);
#964=ORIENTED_EDGE('',*,*,#635,.T.);
#965=ORIENTED_EDGE('',*,*,#644,.F.);
#966=ORIENTED_EDGE('',*,*,#602,.T.);
#967=ORIENTED_EDGE('',*,*,#671,.F.);
#968=ORIENTED_EDGE('',*,*,#619,.F.);
#969=ORIENTED_EDGE('',*,*,#601,.T.);
#970=ORIENTED_EDGE('',*,*,#672,.F.);
#971=ORIENTED_EDGE('',*,*,#620,.F.);
#972=ORIENTED_EDGE('',*,*,#671,.T.);
#973=ORIENTED_EDGE('',*,*,#600,.T.);
#974=ORIENTED_EDGE('',*,*,#670,.F.);
#975=ORIENTED_EDGE('',*,*,#621,.F.);
#976=ORIENTED_EDGE('',*,*,#672,.T.);
#977=CYLINDRICAL_SURFACE('',#1053,1.);
#978=CYLINDRICAL_SURFACE('',#1059,1.);
#979=CYLINDRICAL_SURFACE('',#1070,1.);
#980=CYLINDRICAL_SURFACE('',#1073,1.);
#981=CYLINDRICAL_SURFACE('',#1076,1.);
#982=CYLINDRICAL_SURFACE('',#1082,1.);
#983=CYLINDRICAL_SURFACE('',#1084,2.);
#984=CYLINDRICAL_SURFACE('',#1087,2.);
#985=CYLINDRICAL_SURFACE('',#1089,1.);
#986=CYLINDRICAL_SURFACE('',#1095,1.);
#987=CYLINDRICAL_SURFACE('',#1100,1.);
#988=CYLINDRICAL_SURFACE('',#1103,1.);
#989=CYLINDRICAL_SURFACE('',#1106,1.);
#990=CYLINDRICAL_SURFACE('',#1109,1.);
#991=CYLINDRICAL_SURFACE('',#1112,1.);
#992=CYLINDRICAL_SURFACE('',#1116,1.);
#993=CYLINDRICAL_SURFACE('',#1128,2.);
#994=CYLINDRICAL_SURFACE('',#1130,2.);
#995=CYLINDRICAL_SURFACE('',#1133,2.);
#996=CYLINDRICAL_SURFACE('',#1136,2.);
#997=ADVANCED_FACE('',(#49),#977,.T.);
#998=ADVANCED_FACE('',(#50),#15,.T.);
#999=ADVANCED_FACE('',(#51),#16,.T.);
#1000=ADVANCED_FACE('',(#52),#978,.T.);
#1001=ADVANCED_FACE('',(#53),#17,.T.);
#1002=ADVANCED_FACE('',(#54),#979,.T.);
#1003=ADVANCED_FACE('',(#55),#18,.T.);
#1004=ADVANCED_FACE('',(#56),#980,.T.);
#1005=ADVANCED_FACE('',(#57),#19,.T.);
#1006=ADVANCED_FACE('',(#58),#981,.T.);
#1007=ADVANCED_FACE('',(#59),#20,.T.);
#1008=ADVANCED_FACE('',(#60),#21,.T.);
#1009=ADVANCED_FACE('',(#61),#982,.T.);
#1010=ADVANCED_FACE('',(#62),#983,.F.);
#1011=ADVANCED_FACE('',(#63),#22,.T.);
#1012=ADVANCED_FACE('',(#64),#984,.F.);
#1013=ADVANCED_FACE('',(#65),#985,.T.);
#1014=ADVANCED_FACE('',(#66),#23,.T.);
#1015=ADVANCED_FACE('',(#67),#24,.T.);
#1016=ADVANCED_FACE('',(#68),#986,.T.);
#1017=ADVANCED_FACE('',(#69),#25,.T.);
#1018=ADVANCED_FACE('',(#70),#987,.T.);
#1019=ADVANCED_FACE('',(#71),#26,.T.);
#1020=ADVANCED_FACE('',(#72),#988,.T.);
#1021=ADVANCED_FACE('',(#73),#27,.T.);
#1022=ADVANCED_FACE('',(#74),#989,.T.);
#1023=ADVANCED_FACE('',(#75),#28,.T.);
#1024=ADVANCED_FACE('',(#76),#990,.T.);
#1025=ADVANCED_FACE('',(#77),#991,.T.);
#1026=ADVANCED_FACE('',(#78),#29,.T.);
#1027=ADVANCED_FACE('',(#79),#992,.T.);
#1028=ADVANCED_FACE('',(#80),#30,.F.);
#1029=ADVANCED_FACE('',(#81),#31,.T.);
#1030=ADVANCED_FACE('',(#82),#32,.T.);
#1031=ADVANCED_FACE('',(#83),#33,.T.);
#1032=ADVANCED_FACE('',(#84),#34,.T.);
#1033=ADVANCED_FACE('',(#85),#35,.T.);
#1034=ADVANCED_FACE('',(#86),#36,.T.);
#1035=ADVANCED_FACE('',(#87),#37,.T.);
#1036=ADVANCED_FACE('',(#88),#993,.F.);
#1037=ADVANCED_FACE('',(#89),#994,.F.);
#1038=ADVANCED_FACE('',(#90),#38,.T.);
#1039=ADVANCED_FACE('',(#91),#995,.T.);
#1040=ADVANCED_FACE('',(#92),#39,.T.);
#1041=ADVANCED_FACE('',(#93),#996,.T.);
#1042=ADVANCED_FACE('',(#94),#40,.T.);
#1043=ADVANCED_FACE('',(#95),#41,.T.);
#1044=ADVANCED_FACE('',(#96),#42,.T.);
#1045=ADVANCED_FACE('',(#97),#43,.T.);
#1046=ADVANCED_FACE('',(#98),#44,.T.);
#1047=ADVANCED_FACE('',(#99),#45,.T.);
#1048=ADVANCED_FACE('',(#100),#46,.T.);
#1049=ADVANCED_FACE('',(#101),#47,.T.);
#1050=ADVANCED_FACE('',(#102),#48,.T.);
#1051=CLOSED_SHELL('',(#997,#998,#999,#1000,#1001,#1002,#1003,#1004,#1005,
#1006,#1007,#1008,#1009,#1010,#1011,#1012,#1013,#1014,#1015,#1016,#1017,
#1018,#1019,#1020,#1021,#1022,#1023,#1024,#1025,#1026,#1027,#1028,#1029,
#1030,#1031,#1032,#1033,#1034,#1035,#1036,#1037,#1038,#1039,#1040,#1041,
#1042,#1043,#1044,#1045,#1046,#1047,#1048,#1049,#1050));
#1052=AXIS2_PLACEMENT_3D('',#1449,#1147,#1148);
#1053=AXIS2_PLACEMENT_3D('',#1450,#1149,#1150);
#1054=AXIS2_PLACEMENT_3D('',#1453,#1151,#1152);
#1055=AXIS2_PLACEMENT_3D('',#1457,#1154,#1155);
#1056=AXIS2_PLACEMENT_3D('',#1459,#1157,#1158);
#1057=AXIS2_PLACEMENT_3D('',#1465,#1161,#1162);
#1058=AXIS2_PLACEMENT_3D('',#1467,#1164,#1165);
#1059=AXIS2_PLACEMENT_3D('',#1477,#1171,#1172);
#1060=AXIS2_PLACEMENT_3D('',#1479,#1173,#1174);
#1061=AXIS2_PLACEMENT_3D('',#1481,#1175,#1176);
#1062=AXIS2_PLACEMENT_3D('',#1483,#1178,#1179);
#1063=AXIS2_PLACEMENT_3D('',#1487,#1181,#1182);
#1064=AXIS2_PLACEMENT_3D('',#1491,#1184,#1185);
#1065=AXIS2_PLACEMENT_3D('',#1495,#1187,#1188);
#1066=AXIS2_PLACEMENT_3D('',#1499,#1190,#1191);
#1067=AXIS2_PLACEMENT_3D('',#1503,#1193,#1194);
#1068=AXIS2_PLACEMENT_3D('',#1507,#1196,#1197);
#1069=AXIS2_PLACEMENT_3D('',#1510,#1199,#1200);
#1070=AXIS2_PLACEMENT_3D('',#1511,#1201,#1202);
#1071=AXIS2_PLACEMENT_3D('',#1514,#1204,#1205);
#1072=AXIS2_PLACEMENT_3D('',#1515,#1206,#1207);
#1073=AXIS2_PLACEMENT_3D('',#1519,#1210,#1211);
#1074=AXIS2_PLACEMENT_3D('',#1523,#1213,#1214);
#1075=AXIS2_PLACEMENT_3D('',#1525,#1216,#1217);
#1076=AXIS2_PLACEMENT_3D('',#1533,#1222,#1223);
#1077=AXIS2_PLACEMENT_3D('',#1535,#1224,#1225);
#1078=AXIS2_PLACEMENT_3D('',#1538,#1227,#1228);
#1079=AXIS2_PLACEMENT_3D('',#1539,#1229,#1230);
#1080=AXIS2_PLACEMENT_3D('',#1543,#1232,#1233);
#1081=AXIS2_PLACEMENT_3D('',#1547,#1236,#1237);
#1082=AXIS2_PLACEMENT_3D('',#1551,#1240,#1241);
#1083=AXIS2_PLACEMENT_3D('',#1553,#1242,#1243);
#1084=AXIS2_PLACEMENT_3D('',#1555,#1245,#1246);
#1085=AXIS2_PLACEMENT_3D('',#1559,#1248,#1249);
#1086=AXIS2_PLACEMENT_3D('',#1561,#1251,#1252);
#1087=AXIS2_PLACEMENT_3D('',#1563,#1254,#1255);
#1088=AXIS2_PLACEMENT_3D('',#1565,#1256,#1257);
#1089=AXIS2_PLACEMENT_3D('',#1567,#1259,#1260);
#1090=AXIS2_PLACEMENT_3D('',#1570,#1261,#1262);
#1091=AXIS2_PLACEMENT_3D('',#1574,#1264,#1265);
#1092=AXIS2_PLACEMENT_3D('',#1576,#1267,#1268);
#1093=AXIS2_PLACEMENT_3D('',#1584,#1272,#1273);
#1094=AXIS2_PLACEMENT_3D('',#1586,#1275,#1276);
#1095=AXIS2_PLACEMENT_3D('',#1617,#1293,#1294);
#1096=AXIS2_PLACEMENT_3D('',#1619,#1295,#1296);
#1097=AXIS2_PLACEMENT_3D('',#1621,#1297,#1298);
#1098=AXIS2_PLACEMENT_3D('',#1623,#1300,#1301);
#1099=AXIS2_PLACEMENT_3D('',#1627,#1303,#1304);
#1100=AXIS2_PLACEMENT_3D('',#1631,#1307,#1308);
#1101=AXIS2_PLACEMENT_3D('',#1635,#1310,#1311);
#1102=AXIS2_PLACEMENT_3D('',#1637,#1313,#1314);
#1103=AXIS2_PLACEMENT_3D('',#1639,#1316,#1317);
#1104=AXIS2_PLACEMENT_3D('',#1643,#1319,#1320);
#1105=AXIS2_PLACEMENT_3D('',#1645,#1322,#1323);
#1106=AXIS2_PLACEMENT_3D('',#1671,#1338,#1339);
#1107=AXIS2_PLACEMENT_3D('',#1673,#1340,#1341);
#1108=AXIS2_PLACEMENT_3D('',#1675,#1343,#1344);
#1109=AXIS2_PLACEMENT_3D('',#1679,#1347,#1348);
#1110=AXIS2_PLACEMENT_3D('',#1681,#1349,#1350);
#1111=AXIS2_PLACEMENT_3D('',#1684,#1352,#1353);
#1112=AXIS2_PLACEMENT_3D('',#1685,#1354,#1355);
#1113=AXIS2_PLACEMENT_3D('',#1687,#1356,#1357);
#1114=AXIS2_PLACEMENT_3D('',#1689,#1358,#1359);
#1115=AXIS2_PLACEMENT_3D('',#1691,#1361,#1362);
#1116=AXIS2_PLACEMENT_3D('',#1694,#1365,#1366);
#1117=AXIS2_PLACEMENT_3D('',#1695,#1367,#1368);
#1118=AXIS2_PLACEMENT_3D('',#1696,#1369,#1370);
#1119=AXIS2_PLACEMENT_3D('',#1698,#1372,#1373);
#1120=AXIS2_PLACEMENT_3D('',#1704,#1377,#1378);
#1121=AXIS2_PLACEMENT_3D('',#1706,#1380,#1381);
#1122=AXIS2_PLACEMENT_3D('',#1708,#1383,#1384);
#1123=AXIS2_PLACEMENT_3D('',#1709,#1385,#1386);
#1124=AXIS2_PLACEMENT_3D('',#1711,#1388,#1389);
#1125=AXIS2_PLACEMENT_3D('',#1712,#1390,#1391);
#1126=AXIS2_PLACEMENT_3D('',#1714,#1392,#1393);
#1127=AXIS2_PLACEMENT_3D('',#1717,#1395,#1396);
#1128=AXIS2_PLACEMENT_3D('',#1718,#1397,#1398);
#1129=AXIS2_PLACEMENT_3D('',#1720,#1399,#1400);
#1130=AXIS2_PLACEMENT_3D('',#1722,#1402,#1403);
#1131=AXIS2_PLACEMENT_3D('',#1726,#1405,#1406);
#1132=AXIS2_PLACEMENT_3D('',#1728,#1408,#1409);
#1133=AXIS2_PLACEMENT_3D('',#1732,#1413,#1414);
#1134=AXIS2_PLACEMENT_3D('',#1734,#1415,#1416);
#1135=AXIS2_PLACEMENT_3D('',#1736,#1418,#1419);
#1136=AXIS2_PLACEMENT_3D('',#1740,#1422,#1423);
#1137=AXIS2_PLACEMENT_3D('',#1741,#1424,#1425);
#1138=AXIS2_PLACEMENT_3D('',#1742,#1426,#1427);
#1139=AXIS2_PLACEMENT_3D('',#1743,#1428,#1429);
#1140=AXIS2_PLACEMENT_3D('',#1744,#1430,#1431);
#1141=AXIS2_PLACEMENT_3D('',#1746,#1433,#1434);
#1142=AXIS2_PLACEMENT_3D('',#1747,#1435,#1436);
#1143=AXIS2_PLACEMENT_3D('',#1750,#1439,#1440);
#1144=AXIS2_PLACEMENT_3D('',#1751,#1441,#1442);
#1145=AXIS2_PLACEMENT_3D('',#1753,#1444,#1445);
#1146=AXIS2_PLACEMENT_3D('',#1755,#1447,#1448);
#1147=DIRECTION('axis',(0.,0.,1.));
#1148=DIRECTION('refdir',(1.,0.,0.));
#1149=DIRECTION('center_axis',(0.,1.,3.9474596431116E-14));
#1150=DIRECTION('ref_axis',(-0.707106781186548,-2.51214793389405E-14,0.707106781186548));
#1151=DIRECTION('center_axis',(0.,-1.,-1.63971400560025E-13));
#1152=DIRECTION('ref_axis',(-0.707106781186548,-2.51214793389405E-14,0.707106781186548));
#1153=DIRECTION('',(0.,-1.,-3.9474596431116E-14));
#1154=DIRECTION('center_axis',(0.,1.,0.));
#1155=DIRECTION('ref_axis',(-0.707106781186548,-2.51214793389405E-14,0.707106781186548));
#1156=DIRECTION('',(0.,1.,3.9474596431116E-14));
#1157=DIRECTION('center_axis',(0.,-1.,0.));
#1158=DIRECTION('ref_axis',(0.,0.,-1.));
#1159=DIRECTION('',(1.,0.,0.));
#1160=DIRECTION('',(0.,0.,1.));
#1161=DIRECTION('center_axis',(0.,-1.,0.));
#1162=DIRECTION('ref_axis',(0.707106781186549,2.51214793389403E-14,-0.707106781186546));
#1163=DIRECTION('',(1.,0.,0.));
#1164=DIRECTION('center_axis',(-1.,0.,0.));
#1165=DIRECTION('ref_axis',(0.,0.,1.));
#1166=DIRECTION('',(0.,-4.91914201680064E-14,-1.));
#1167=DIRECTION('',(0.,1.,9.99200722162755E-15));
#1168=DIRECTION('',(0.,-6.51330841113427E-14,1.));
#1169=DIRECTION('',(0.,-1.,-3.9474596431116E-14));
#1170=DIRECTION('',(0.,1.,2.96059473233381E-14));
#1171=DIRECTION('center_axis',(0.,-1.,-9.99200722162755E-15));
#1172=DIRECTION('ref_axis',(-0.707106781186544,0.,-0.707106781186551));
#1173=DIRECTION('center_axis',(0.,1.,6.51330841113427E-14));
#1174=DIRECTION('ref_axis',(-0.707106781186544,0.,-0.707106781186551));
#1175=DIRECTION('center_axis',(0.,-1.,-1.63971400560025E-13));
#1176=DIRECTION('ref_axis',(-0.707106781186544,0.,-0.707106781186551));
#1177=DIRECTION('',(0.,-1.,-9.99200722162755E-15));
#1178=DIRECTION('center_axis',(0.,-1.,-6.51330841113427E-14));
#1179=DIRECTION('ref_axis',(0.,6.51330841113427E-14,-1.));
#1180=DIRECTION('',(1.,0.,0.));
#1181=DIRECTION('center_axis',(0.,1.,6.51330841113427E-14));
#1182=DIRECTION('ref_axis',(-0.707106781186554,0.,-0.707106781186541));
#1183=DIRECTION('',(0.,0.,-1.));
#1184=DIRECTION('center_axis',(0.,1.,6.51330841113427E-14));
#1185=DIRECTION('ref_axis',(-0.707106781186548,0.,0.707106781186548));
#1186=DIRECTION('',(1.,0.,0.));
#1187=DIRECTION('center_axis',(0.,1.,6.51330841113427E-14));
#1188=DIRECTION('ref_axis',(-0.707106781186541,0.,0.707106781186554));
#1189=DIRECTION('',(0.,-6.51330841113427E-14,1.));
#1190=DIRECTION('center_axis',(0.,1.,6.51330841113427E-14));
#1191=DIRECTION('ref_axis',(-0.707106781186548,-2.51214793389405E-14,-0.707106781186548));
#1192=DIRECTION('',(1.,0.,0.));
#1193=DIRECTION('center_axis',(0.,-1.,-6.51330841113427E-14));
#1194=DIRECTION('ref_axis',(0.707106781186546,2.51214793389404E-14,0.707106781186549));
#1195=DIRECTION('',(0.,6.51330841113427E-14,-1.));
#1196=DIRECTION('center_axis',(0.,-1.,-6.51330841113427E-14));
#1197=DIRECTION('ref_axis',(0.707106781186546,2.51214793389404E-14,-0.707106781186549));
#1198=DIRECTION('',(-1.,0.,0.));
#1199=DIRECTION('center_axis',(0.,1.,6.51330841113427E-14));
#1200=DIRECTION('ref_axis',(-0.707106781186548,-2.51214793389405E-14,0.707106781186548));
#1201=DIRECTION('center_axis',(0.,1.,3.9474596431116E-14));
#1202=DIRECTION('ref_axis',(-0.707106781186548,-2.51214793389405E-14,0.707106781186548));
#1203=DIRECTION('',(0.,1.,3.9474596431116E-14));
#1204=DIRECTION('center_axis',(0.,-1.,0.));
#1205=DIRECTION('ref_axis',(-0.707106781186548,-2.51214793389405E-14,0.707106781186548));
#1206=DIRECTION('center_axis',(0.,-3.9474596431116E-14,1.));
#1207=DIRECTION('ref_axis',(1.,0.,0.));
#1208=DIRECTION('',(0.,-1.,-3.9474596431116E-14));
#1209=DIRECTION('',(1.,0.,0.));
#1210=DIRECTION('center_axis',(0.,-1.,3.9474596431116E-14));
#1211=DIRECTION('ref_axis',(-0.707106781186548,-2.51214793389405E-14,-0.707106781186548));
#1212=DIRECTION('',(0.,1.,-3.9474596431116E-14));
#1213=DIRECTION('center_axis',(0.,-1.,0.));
#1214=DIRECTION('ref_axis',(-0.707106781186548,-2.51214793389405E-14,-0.707106781186548));
#1215=DIRECTION('',(0.,-1.,3.9474596431116E-14));
#1216=DIRECTION('center_axis',(-1.,0.,0.));
#1217=DIRECTION('ref_axis',(0.,0.,1.));
#1218=DIRECTION('',(0.,-1.,0.));
#1219=DIRECTION('',(0.,1.63971400560025E-13,-1.));
#1220=DIRECTION('',(0.,1.,-3.9474596431116E-14));
#1221=DIRECTION('',(0.,-1.,8.88178419700144E-14));
#1222=DIRECTION('center_axis',(0.,-1.,3.9474596431116E-14));
#1223=DIRECTION('ref_axis',(-0.707106781186548,-2.51214793389405E-14,-0.707106781186548));
#1224=DIRECTION('center_axis',(0.,-1.,-1.63971400560025E-13));
#1225=DIRECTION('ref_axis',(-0.707106781186548,-2.51214793389405E-14,-0.707106781186548));
#1226=DIRECTION('',(0.,-1.,3.9474596431116E-14));
#1227=DIRECTION('center_axis',(0.,1.,-1.24344978758016E-13));
#1228=DIRECTION('ref_axis',(-0.707106781186548,-2.51214793389405E-14,-0.707106781186548));
#1229=DIRECTION('center_axis',(0.,-1.,1.24344978758016E-13));
#1230=DIRECTION('ref_axis',(0.,-1.24344978758016E-13,-1.));
#1231=DIRECTION('',(1.,0.,0.));
#1232=DIRECTION('center_axis',(0.,-1.,1.24344978758016E-13));
#1233=DIRECTION('ref_axis',(0.707106781186549,2.51214793389403E-14,0.707106781186546));
#1234=DIRECTION('',(0.,1.24344978758016E-13,1.));
#1235=DIRECTION('',(1.,0.,0.));
#1236=DIRECTION('center_axis',(0.,-3.9474596431116E-14,-1.));
#1237=DIRECTION('ref_axis',(0.,1.,-3.9474596431116E-14));
#1238=DIRECTION('',(1.,0.,0.));
#1239=DIRECTION('',(0.,1.,-3.9474596431116E-14));
#1240=DIRECTION('center_axis',(0.,1.,0.));
#1241=DIRECTION('ref_axis',(-0.707106781186541,0.,0.707106781186554));
#1242=DIRECTION('center_axis',(0.,-1.,-1.63971400560025E-13));
#1243=DIRECTION('ref_axis',(-0.707106781186541,0.,0.707106781186554));
#1244=DIRECTION('',(0.,1.,0.));
#1245=DIRECTION('center_axis',(0.,1.,-3.9474596431116E-14));
#1246=DIRECTION('ref_axis',(0.707106781186546,2.51214793389404E-14,0.707106781186549));
#1247=DIRECTION('',(0.,1.,-3.9474596431116E-14));
#1248=DIRECTION('center_axis',(0.,1.,0.));
#1249=DIRECTION('ref_axis',(0.707106781186546,2.51214793389404E-14,0.707106781186549));
#1250=DIRECTION('',(0.,-1.,3.9474596431116E-14));
#1251=DIRECTION('center_axis',(0.,-3.9474596431116E-14,-1.));
#1252=DIRECTION('ref_axis',(-1.,0.,0.));
#1253=DIRECTION('',(-1.,0.,0.));
#1254=DIRECTION('center_axis',(0.,-1.,-3.9474596431116E-14));
#1255=DIRECTION('ref_axis',(0.707106781186546,2.51214793389404E-14,-0.707106781186549));
#1256=DIRECTION('center_axis',(0.,1.,0.));
#1257=DIRECTION('ref_axis',(0.707106781186546,2.51214793389404E-14,-0.707106781186549));
#1258=DIRECTION('',(0.,1.,3.9474596431116E-14));
#1259=DIRECTION('center_axis',(0.,-1.,-9.99200722162755E-15));
#1260=DIRECTION('ref_axis',(-0.707106781186548,0.,-0.707106781186548));
#1261=DIRECTION('center_axis',(0.,1.,0.));
#1262=DIRECTION('ref_axis',(-0.707106781186548,0.,-0.707106781186548));
#1263=DIRECTION('',(0.,1.,9.99200722162755E-15));
#1264=DIRECTION('center_axis',(0.,1.,6.51330841113427E-14));
#1265=DIRECTION('ref_axis',(-0.707106781186548,0.,-0.707106781186548));
#1266=DIRECTION('',(0.,-1.,-9.99200722162755E-15));
#1267=DIRECTION('center_axis',(0.,-1.,0.));
#1268=DIRECTION('ref_axis',(-1.,0.,0.));
#1269=DIRECTION('',(1.,0.,0.));
#1270=DIRECTION('',(0.,0.,-1.));
#1271=DIRECTION('',(-1.,0.,0.));
#1272=DIRECTION('center_axis',(0.,1.,0.));
#1273=DIRECTION('ref_axis',(-0.707106781186554,0.,0.707106781186541));
#1274=DIRECTION('',(0.,0.,-1.));
#1275=DIRECTION('center_axis',(0.,9.99200722162755E-15,-1.));
#1276=DIRECTION('ref_axis',(-1.,0.,0.));
#1277=DIRECTION('',(-1.,0.,0.));
#1278=DIRECTION('',(0.,1.,9.99200722162755E-15));
#1279=DIRECTION('',(1.,0.,0.));
#1280=DIRECTION('',(-1.48029736616712E-15,1.,9.99200722162755E-15));
#1281=DIRECTION('',(1.,0.,0.));
#1282=DIRECTION('',(0.624695047554426,-0.780868809443029,-7.80244678309846E-15));
#1283=DIRECTION('',(-1.,0.,0.));
#1284=DIRECTION('',(0.,-1.,-9.99200722162755E-15));
#1285=DIRECTION('',(1.,0.,0.));
#1286=DIRECTION('',(0.,1.,9.99200722162755E-15));
#1287=DIRECTION('',(1.,0.,0.));
#1288=DIRECTION('',(0.,1.,9.99200722162755E-15));
#1289=DIRECTION('',(-1.,8.88178419700124E-14,8.87468518373739E-28));
#1290=DIRECTION('',(0.624695047554457,0.780868809443004,7.80244678309821E-15));
#1291=DIRECTION('',(1.,5.6843418860808E-14,5.67979851759194E-28));
#1292=DIRECTION('',(-1.48029736616712E-15,-1.,-9.99200722162755E-15));
#1293=DIRECTION('center_axis',(-1.48029736616712E-15,1.,9.99200722162755E-15));
#1294=DIRECTION('ref_axis',(0.707106781186548,0.,-0.707106781186548));
#1295=DIRECTION('center_axis',(0.,1.,0.));
#1296=DIRECTION('ref_axis',(0.707106781186548,0.,-0.707106781186548));
#1297=DIRECTION('center_axis',(0.,1.,6.51330841113427E-14));
#1298=DIRECTION('ref_axis',(0.707106781186548,0.,-0.707106781186548));
#1299=DIRECTION('',(1.48029736616712E-15,-1.,-9.99200722162755E-15));
#1300=DIRECTION('center_axis',(0.,-1.,0.));
#1301=DIRECTION('ref_axis',(-1.,0.,0.));
#1302=DIRECTION('',(0.,0.,-1.));
#1303=DIRECTION('center_axis',(0.,1.,0.));
#1304=DIRECTION('ref_axis',(0.707106781186548,0.,0.707106781186548));
#1305=DIRECTION('',(-1.,0.,0.));
#1306=DIRECTION('',(0.,0.,-1.));
#1307=DIRECTION('center_axis',(0.,1.,0.));
#1308=DIRECTION('ref_axis',(-0.707106781186554,0.,0.707106781186541));
#1309=DIRECTION('',(0.,1.,0.));
#1310=DIRECTION('center_axis',(0.,1.,6.51330841113427E-14));
#1311=DIRECTION('ref_axis',(-0.707106781186554,0.,0.707106781186541));
#1312=DIRECTION('',(0.,-1.,0.));
#1313=DIRECTION('center_axis',(-1.,0.,0.));
#1314=DIRECTION('ref_axis',(0.,1.,0.));
#1315=DIRECTION('',(0.,-6.51330841113427E-14,1.));
#1316=DIRECTION('center_axis',(1.48029736616712E-15,-1.,0.));
#1317=DIRECTION('ref_axis',(0.707106781186548,0.,0.707106781186548));
#1318=DIRECTION('',(-1.48029736616712E-15,1.,0.));
#1319=DIRECTION('center_axis',(0.,1.,6.51330841113427E-14));
#1320=DIRECTION('ref_axis',(0.707106781186548,0.,0.707106781186548));
#1321=DIRECTION('',(1.48029736616712E-15,-1.,0.));
#1322=DIRECTION('center_axis',(0.,0.,1.));
#1323=DIRECTION('ref_axis',(-1.,0.,0.));
#1324=DIRECTION('',(1.48029736616712E-15,1.,0.));
#1325=DIRECTION('',(1.,5.6843418860808E-14,0.));
#1326=DIRECTION('',(0.624695047554457,0.780868809443004,0.));
#1327=DIRECTION('',(-1.,8.88178419700124E-14,0.));
#1328=DIRECTION('',(0.,-1.,0.));
#1329=DIRECTION('',(1.,0.,0.));
#1330=DIRECTION('',(0.,-1.,0.));
#1331=DIRECTION('',(1.,0.,0.));
#1332=DIRECTION('',(0.,-1.,0.));
#1333=DIRECTION('',(1.,0.,0.));
#1334=DIRECTION('',(-0.624695047554426,0.780868809443029,0.));
#1335=DIRECTION('',(1.,0.,0.));
#1336=DIRECTION('',(0.,-1.,2.2204460492503E-15));
#1337=DIRECTION('',(1.,0.,0.));
#1338=DIRECTION('center_axis',(-1.48029736616712E-15,-1.,0.));
#1339=DIRECTION('ref_axis',(-0.707106781186548,0.,0.707106781186548));
#1340=DIRECTION('center_axis',(-5.6843418860808E-14,1.,0.));
#1341=DIRECTION('ref_axis',(-0.707106781186548,0.,0.707106781186548));
#1342=DIRECTION('',(-1.48029736616712E-15,-1.,0.));
#1343=DIRECTION('center_axis',(-1.,1.48029736616712E-15,0.));
#1344=DIRECTION('ref_axis',(1.48029736616712E-15,1.,0.));
#1345=DIRECTION('',(1.48029736616712E-15,1.,9.99200722162755E-15));
#1346=DIRECTION('',(0.,0.,-1.));
#1347=DIRECTION('center_axis',(0.,1.,0.));
#1348=DIRECTION('ref_axis',(0.707106781186548,0.,0.707106781186548));
#1349=DIRECTION('center_axis',(0.,1.,0.));
#1350=DIRECTION('ref_axis',(0.707106781186548,0.,0.707106781186548));
#1351=DIRECTION('',(0.,1.,0.));
#1352=DIRECTION('center_axis',(0.,1.,6.51330841113427E-14));
#1353=DIRECTION('ref_axis',(0.707106781186548,0.,0.707106781186548));
#1354=DIRECTION('center_axis',(0.,1.,9.99200722162755E-15));
#1355=DIRECTION('ref_axis',(0.707106781186548,0.,-0.707106781186548));
#1356=DIRECTION('center_axis',(0.,1.,0.));
#1357=DIRECTION('ref_axis',(0.707106781186548,0.,-0.707106781186548));
#1358=DIRECTION('center_axis',(0.,1.,6.51330841113427E-14));
#1359=DIRECTION('ref_axis',(0.707106781186548,0.,-0.707106781186548));
#1360=DIRECTION('',(0.,-1.,-9.99200722162755E-15));
#1361=DIRECTION('center_axis',(1.,0.,0.));
#1362=DIRECTION('ref_axis',(0.,-1.,0.));
#1363=DIRECTION('',(0.,0.,-1.));
#1364=DIRECTION('',(0.,0.,-1.));
#1365=DIRECTION('center_axis',(-1.48029736616712E-15,-1.,-9.99200722162755E-15));
#1366=DIRECTION('ref_axis',(-0.707106781186554,0.,-0.707106781186541));
#1367=DIRECTION('center_axis',(-5.6843418860808E-14,1.,0.));
#1368=DIRECTION('ref_axis',(-0.707106781186554,0.,-0.707106781186541));
#1369=DIRECTION('center_axis',(1.,0.,0.));
#1370=DIRECTION('ref_axis',(0.,-1.,3.9474596431116E-14));
#1371=DIRECTION('',(0.,0.,1.));
#1372=DIRECTION('center_axis',(0.,1.,0.));
#1373=DIRECTION('ref_axis',(0.,0.,1.));
#1374=DIRECTION('',(1.,0.,0.));
#1375=DIRECTION('',(0.,0.,-1.));
#1376=DIRECTION('',(1.,0.,0.));
#1377=DIRECTION('center_axis',(-1.,0.,0.));
#1378=DIRECTION('ref_axis',(0.,1.,0.));
#1379=DIRECTION('',(0.,0.,-1.));
#1380=DIRECTION('center_axis',(0.,1.,0.));
#1381=DIRECTION('ref_axis',(1.,0.,0.));
#1382=DIRECTION('',(0.,0.,-1.));
#1383=DIRECTION('center_axis',(-0.780868809443029,-0.624695047554426,0.));
#1384=DIRECTION('ref_axis',(-0.624695047554426,0.780868809443029,0.));
#1385=DIRECTION('center_axis',(1.,1.48029736616712E-15,0.));
#1386=DIRECTION('ref_axis',(1.48029736616712E-15,-1.,0.));
#1387=DIRECTION('',(-9.64163328603621E-29,6.51330841113427E-14,-1.));
#1388=DIRECTION('center_axis',(0.,-1.,-6.51330841113427E-14));
#1389=DIRECTION('ref_axis',(0.,6.51330841113427E-14,-1.));
#1390=DIRECTION('center_axis',(0.,-1.,-6.51330841113427E-14));
#1391=DIRECTION('ref_axis',(0.,6.51330841113427E-14,-1.));
#1392=DIRECTION('center_axis',(0.,1.,6.51330841113427E-14));
#1393=DIRECTION('ref_axis',(0.707106781186546,0.,-0.707106781186549));
#1394=DIRECTION('',(0.,6.51330841113427E-14,-1.));
#1395=DIRECTION('center_axis',(0.,1.,6.51330841113427E-14));
#1396=DIRECTION('ref_axis',(0.707106781186544,0.,0.707106781186551));
#1397=DIRECTION('center_axis',(0.,-1.,3.9474596431116E-14));
#1398=DIRECTION('ref_axis',(0.707106781186549,2.51214793389403E-14,0.707106781186546));
#1399=DIRECTION('center_axis',(0.,1.,1.63971400560025E-13));
#1400=DIRECTION('ref_axis',(0.707106781186549,2.51214793389403E-14,0.707106781186546));
#1401=DIRECTION('',(0.,-1.,3.9474596431116E-14));
#1402=DIRECTION('center_axis',(0.,1.,3.9474596431116E-14));
#1403=DIRECTION('ref_axis',(0.707106781186549,2.51214793389403E-14,-0.707106781186546));
#1404=DIRECTION('',(0.,1.,3.9474596431116E-14));
#1405=DIRECTION('center_axis',(0.,1.,1.63971400560025E-13));
#1406=DIRECTION('ref_axis',(0.707106781186549,2.51214793389403E-14,-0.707106781186546));
#1407=DIRECTION('',(0.,-1.,-3.9474596431116E-14));
#1408=DIRECTION('center_axis',(-1.,0.,0.));
#1409=DIRECTION('ref_axis',(0.,0.,1.));
#1410=DIRECTION('',(0.,1.46288210303551E-14,-1.));
#1411=DIRECTION('',(0.,1.,2.96059473233381E-14));
#1412=DIRECTION('',(0.,-1.,8.88178419700144E-14));
#1413=DIRECTION('center_axis',(0.,1.,9.99200722162755E-15));
#1414=DIRECTION('ref_axis',(0.707106781186546,0.,-0.707106781186549));
#1415=DIRECTION('center_axis',(0.,-1.,-1.63971400560025E-13));
#1416=DIRECTION('ref_axis',(0.707106781186546,0.,-0.707106781186549));
#1417=DIRECTION('',(0.,-1.,-9.99200722162755E-15));
#1418=DIRECTION('center_axis',(1.,0.,0.));
#1419=DIRECTION('ref_axis',(0.,0.,-1.));
#1420=DIRECTION('',(0.,4.91914201680064E-14,1.));
#1421=DIRECTION('',(0.,1.,-2.2204460492503E-15));
#1422=DIRECTION('center_axis',(0.,-1.,2.2204460492503E-15));
#1423=DIRECTION('ref_axis',(0.707106781186544,0.,0.707106781186551));
#1424=DIRECTION('center_axis',(0.,-1.,-1.63971400560025E-13));
#1425=DIRECTION('ref_axis',(0.707106781186544,0.,0.707106781186551));
#1426=DIRECTION('center_axis',(0.,-8.88178419700144E-14,-1.));
#1427=DIRECTION('ref_axis',(0.,1.,-8.88178419700144E-14));
#1428=DIRECTION('center_axis',(0.,-2.96059473233381E-14,1.));
#1429=DIRECTION('ref_axis',(0.,-1.,-2.96059473233381E-14));
#1430=DIRECTION('center_axis',(0.,1.,1.63971400560025E-13));
#1431=DIRECTION('ref_axis',(0.,-1.63971400560025E-13,1.));
#1432=DIRECTION('',(1.,0.,0.));
#1433=DIRECTION('center_axis',(0.,-3.9474596431116E-14,1.));
#1434=DIRECTION('ref_axis',(0.,-1.,-3.9474596431116E-14));
#1435=DIRECTION('center_axis',(1.,0.,0.));
#1436=DIRECTION('ref_axis',(0.,-1.,0.));
#1437=DIRECTION('',(0.,0.,-1.));
#1438=DIRECTION('',(0.,0.,-1.));
#1439=DIRECTION('center_axis',(0.,-1.,0.));
#1440=DIRECTION('ref_axis',(-1.,0.,0.));
#1441=DIRECTION('center_axis',(5.6843418860808E-14,-1.,0.));
#1442=DIRECTION('ref_axis',(-1.,-5.6843418860808E-14,0.));
#1443=DIRECTION('',(0.,0.,-1.));
#1444=DIRECTION('center_axis',(0.780868809443004,-0.624695047554457,0.));
#1445=DIRECTION('ref_axis',(-0.624695047554457,-0.780868809443004,0.));
#1446=DIRECTION('',(0.,0.,-1.));
#1447=DIRECTION('center_axis',(8.88178419700124E-14,1.,0.));
#1448=DIRECTION('ref_axis',(1.,-8.88178419700124E-14,0.));
#1449=CARTESIAN_POINT('',(0.,0.,0.));
#1450=CARTESIAN_POINT('Origin',(-61.,130.,32.2500000000001));
#1451=CARTESIAN_POINT('',(-61.,131.,33.2500000000001));
#1452=CARTESIAN_POINT('',(-62.,131.,32.2500000000001));
#1453=CARTESIAN_POINT('Origin',(-61.,131.,32.2500000000001));
#1454=CARTESIAN_POINT('',(-62.,130.1,32.2500000000001));
#1455=CARTESIAN_POINT('',(-62.,130.,32.2500000000001));
#1456=CARTESIAN_POINT('',(-61.,130.1,33.2500000000001));
#1457=CARTESIAN_POINT('Origin',(-61.,130.1,32.2500000000001));
#1458=CARTESIAN_POINT('',(-61.,130.,33.2500000000001));
#1459=CARTESIAN_POINT('Origin',(0.,130.1,33.2500000000001));
#1460=CARTESIAN_POINT('',(60.,130.1,32.2500000000001));
#1461=CARTESIAN_POINT('',(0.,130.1,32.2500000000001));
#1462=CARTESIAN_POINT('',(60.,130.1,35.2500000000001));
#1463=CARTESIAN_POINT('',(60.,130.1,35.3750000000001));
#1464=CARTESIAN_POINT('',(58.,130.1,33.2500000000001));
#1465=CARTESIAN_POINT('Origin',(58.,130.1,35.2500000000001));
#1466=CARTESIAN_POINT('',(0.,130.1,33.2500000000001));
#1467=CARTESIAN_POINT('Origin',(-62.,128.999999999999,37.5));
#1468=CARTESIAN_POINT('',(-62.,131.,31.0000000000001));
#1469=CARTESIAN_POINT('',(-62.,131.,33.2500000000001));
#1470=CARTESIAN_POINT('',(-62.,127.,31.));
#1471=CARTESIAN_POINT('',(-62.,126.499999999999,31.));
#1472=CARTESIAN_POINT('',(-62.,127.,32.2499999999999));
#1473=CARTESIAN_POINT('',(-62.,127.,30.));
#1474=CARTESIAN_POINT('',(-62.,129.5,32.25));
#1475=CARTESIAN_POINT('',(-62.,128.774999999999,32.25));
#1476=CARTESIAN_POINT('',(-62.,129.5,32.25));
#1477=CARTESIAN_POINT('Origin',(-61.,126.499999999999,31.));
#1478=CARTESIAN_POINT('',(-61.,127.,30.));
#1479=CARTESIAN_POINT('Origin',(-61.,126.999999999999,31.));
#1480=CARTESIAN_POINT('',(-61.,130.999999999999,30.0000000000001));
#1481=CARTESIAN_POINT('Origin',(-61.,131.,31.0000000000001));
#1482=CARTESIAN_POINT('',(-61.,126.499999999999,30.));
#1483=CARTESIAN_POINT('Origin',(0.,126.999999999999,45.));
#1484=CARTESIAN_POINT('',(-54.25,127.,30.));
#1485=CARTESIAN_POINT('',(0.,127.,30.));
#1486=CARTESIAN_POINT('',(-55.25,126.999999999999,31.));
#1487=CARTESIAN_POINT('Origin',(-54.25,126.999999999999,31.));
#1488=CARTESIAN_POINT('',(-55.25,126.999999999999,44.));
#1489=CARTESIAN_POINT('',(-55.25,126.999999999999,45.));
#1490=CARTESIAN_POINT('',(-54.25,126.999999999999,45.));
#1491=CARTESIAN_POINT('Origin',(-54.25,126.999999999999,44.));
#1492=CARTESIAN_POINT('',(-61.,126.999999999999,45.));
#1493=CARTESIAN_POINT('',(0.,126.999999999999,45.));
#1494=CARTESIAN_POINT('',(-62.,126.999999999999,44.));
#1495=CARTESIAN_POINT('Origin',(-61.,126.999999999999,44.));
#1496=CARTESIAN_POINT('',(-62.,126.999999999999,42.7500000000002));
#1497=CARTESIAN_POINT('',(-62.,127.,30.));
#1498=CARTESIAN_POINT('',(-61.,126.999999999999,41.7500000000002));
#1499=CARTESIAN_POINT('Origin',(-61.,126.999999999999,42.7500000000002));
#1500=CARTESIAN_POINT('',(-59.,126.999999999999,41.7500000000002));
#1501=CARTESIAN_POINT('',(-29.75,126.999999999999,41.7500000000002));
#1502=CARTESIAN_POINT('',(-57.,126.999999999999,39.7500000000002));
#1503=CARTESIAN_POINT('Origin',(-59.,126.999999999999,39.7500000000002));
#1504=CARTESIAN_POINT('',(-57.,127.,35.2499999999999));
#1505=CARTESIAN_POINT('',(-57.,126.999999999999,43.3749999999999));
#1506=CARTESIAN_POINT('',(-59.,127.,33.2499999999999));
#1507=CARTESIAN_POINT('Origin',(-59.,126.999999999999,35.2499999999999));
#1508=CARTESIAN_POINT('',(-61.,127.,33.2499999999999));
#1509=CARTESIAN_POINT('',(-29.75,127.,33.2499999999999));
#1510=CARTESIAN_POINT('Origin',(-61.,126.999999999999,32.2499999999999));
#1511=CARTESIAN_POINT('Origin',(-61.,128.774999999999,32.25));
#1512=CARTESIAN_POINT('',(-61.,129.5,33.25));
#1513=CARTESIAN_POINT('',(-61.,128.774999999999,33.25));
#1514=CARTESIAN_POINT('Origin',(-61.,129.5,32.25));
#1515=CARTESIAN_POINT('Origin',(-59.5,128.549999999999,33.25));
#1516=CARTESIAN_POINT('',(-59.,129.5,33.25));
#1517=CARTESIAN_POINT('',(-59.,129.324999999999,33.25));
#1518=CARTESIAN_POINT('',(-29.75,129.5,33.25));
#1519=CARTESIAN_POINT('Origin',(-61.,128.774999999999,42.7500000000001));
#1520=CARTESIAN_POINT('',(-62.,129.5,42.7500000000001));
#1521=CARTESIAN_POINT('',(-62.,128.774999999999,42.7500000000001));
#1522=CARTESIAN_POINT('',(-61.,129.5,41.7500000000001));
#1523=CARTESIAN_POINT('Origin',(-61.,129.5,42.7500000000001));
#1524=CARTESIAN_POINT('',(-61.,128.774999999999,41.7500000000001));
#1525=CARTESIAN_POINT('Origin',(-62.,128.999999999999,37.5));
#1526=CARTESIAN_POINT('',(-62.,130.999999999999,44.));
#1527=CARTESIAN_POINT('',(-62.,126.499999999999,44.));
#1528=CARTESIAN_POINT('',(-62.,130.999999999999,42.75));
#1529=CARTESIAN_POINT('',(-62.,130.999999999999,45.));
#1530=CARTESIAN_POINT('',(-62.,130.1,42.7500000000001));
#1531=CARTESIAN_POINT('',(-62.,129.55,42.7500000000001));
#1532=CARTESIAN_POINT('',(-62.,130.1,42.7500000000001));
#1533=CARTESIAN_POINT('Origin',(-61.,129.55,42.7500000000001));
#1534=CARTESIAN_POINT('',(-61.,131.,41.75));
#1535=CARTESIAN_POINT('Origin',(-61.,131.,42.75));
#1536=CARTESIAN_POINT('',(-61.,130.1,41.75));
#1537=CARTESIAN_POINT('',(-61.,129.549999999999,41.7500000000001));
#1538=CARTESIAN_POINT('Origin',(-61.,130.1,42.75));
#1539=CARTESIAN_POINT('Origin',(0.,130.1,42.7500000000001));
#1540=CARTESIAN_POINT('',(58.,130.1,41.75));
#1541=CARTESIAN_POINT('',(0.,130.1,41.75));
#1542=CARTESIAN_POINT('',(60.,130.099999999999,39.75));
#1543=CARTESIAN_POINT('Origin',(58.,130.1,39.75));
#1544=CARTESIAN_POINT('',(60.,130.1,42.7500000000001));
#1545=CARTESIAN_POINT('',(60.,130.099999999999,40.1250000000001));
#1546=CARTESIAN_POINT('',(0.,130.1,42.7500000000001));
#1547=CARTESIAN_POINT('Origin',(0.,130.1,41.75));
#1548=CARTESIAN_POINT('',(58.,131.,41.75));
#1549=CARTESIAN_POINT('',(0.,131.,41.75));
#1550=CARTESIAN_POINT('',(58.,130.175,41.75));
#1551=CARTESIAN_POINT('Origin',(-61.,126.499999999999,44.));
#1552=CARTESIAN_POINT('',(-61.,130.999999999999,45.));
#1553=CARTESIAN_POINT('Origin',(-61.,131.,44.));
#1554=CARTESIAN_POINT('',(-61.,126.499999999999,45.));
#1555=CARTESIAN_POINT('Origin',(-59.,129.324999999999,39.7500000000001));
#1556=CARTESIAN_POINT('',(-59.,129.5,41.7500000000001));
#1557=CARTESIAN_POINT('',(-59.,129.324999999999,41.7500000000001));
#1558=CARTESIAN_POINT('',(-57.,129.5,39.7500000000001));
#1559=CARTESIAN_POINT('Origin',(-59.,129.5,39.7500000000001));
#1560=CARTESIAN_POINT('',(-57.,129.324999999999,39.7500000000001));
#1561=CARTESIAN_POINT('Origin',(-59.5,128.549999999999,41.7500000000001));
#1562=CARTESIAN_POINT('',(-29.75,129.5,41.7500000000001));
#1563=CARTESIAN_POINT('Origin',(-59.,129.324999999999,35.25));
#1564=CARTESIAN_POINT('',(-57.,129.5,35.25));
#1565=CARTESIAN_POINT('Origin',(-59.,129.5,35.25));
#1566=CARTESIAN_POINT('',(-57.,129.324999999999,35.25));
#1567=CARTESIAN_POINT('Origin',(53.,124.6,31.));
#1568=CARTESIAN_POINT('',(53.,125.2,30.));
#1569=CARTESIAN_POINT('',(52.,125.2,31.));
#1570=CARTESIAN_POINT('Origin',(53.,125.2,31.));
#1571=CARTESIAN_POINT('',(52.,127.,31.));
#1572=CARTESIAN_POINT('',(52.,124.6,31.));
#1573=CARTESIAN_POINT('',(53.,127.,30.));
#1574=CARTESIAN_POINT('Origin',(53.,126.999999999999,31.));
#1575=CARTESIAN_POINT('',(53.,124.6,30.));
#1576=CARTESIAN_POINT('Origin',(54.,125.2,45.));
#1577=CARTESIAN_POINT('',(54.,125.2,30.));
#1578=CARTESIAN_POINT('',(27.,125.2,30.));
#1579=CARTESIAN_POINT('',(54.,125.2,45.));
#1580=CARTESIAN_POINT('',(54.,125.2,45.));
#1581=CARTESIAN_POINT('',(53.,125.2,45.));
#1582=CARTESIAN_POINT('',(54.,125.2,45.));
#1583=CARTESIAN_POINT('',(52.,125.2,44.));
#1584=CARTESIAN_POINT('Origin',(53.,125.2,44.));
#1585=CARTESIAN_POINT('',(52.,125.2,45.));
#1586=CARTESIAN_POINT('Origin',(0.,123.999999999999,30.));
#1587=CARTESIAN_POINT('',(60.,130.999999999999,30.0000000000001));
#1588=CARTESIAN_POINT('',(0.,130.999999999999,30.0000000000001));
#1589=CARTESIAN_POINT('',(60.,127.,30.));
#1590=CARTESIAN_POINT('',(60.,128.,30.));
#1591=CARTESIAN_POINT('',(54.25,127.,30.));
#1592=CARTESIAN_POINT('',(0.,127.,30.));
#1593=CARTESIAN_POINT('',(54.25,121.,30.));
#1594=CARTESIAN_POINT('',(54.25,125.499999999999,30.));
#1595=CARTESIAN_POINT('',(54.,121.,30.));
#1596=CARTESIAN_POINT('',(27.625,121.,30.));
#1597=CARTESIAN_POINT('',(53.2,122.,30.));
#1598=CARTESIAN_POINT('',(42.7317073170732,135.085365853658,30.0000000000001));
#1599=CARTESIAN_POINT('',(54.,122.,30.));
#1600=CARTESIAN_POINT('',(26.6,122.,30.));
#1601=CARTESIAN_POINT('',(54.,123.,30.));
#1602=CARTESIAN_POINT('',(-53.,127.,30.));
#1603=CARTESIAN_POINT('',(0.,127.,30.));
#1604=CARTESIAN_POINT('',(-53.,125.2,30.));
#1605=CARTESIAN_POINT('',(-53.,125.499999999999,30.));
#1606=CARTESIAN_POINT('',(-54.,125.2,30.));
#1607=CARTESIAN_POINT('',(-26.,125.2,30.));
#1608=CARTESIAN_POINT('',(-54.,122.,30.));
#1609=CARTESIAN_POINT('',(-54.,124.6,30.));
#1610=CARTESIAN_POINT('',(-53.2,122.,30.));
#1611=CARTESIAN_POINT('',(-27.0000000000001,121.999999999997,30.));
#1612=CARTESIAN_POINT('',(-54.,121.,30.));
#1613=CARTESIAN_POINT('',(-42.3317073170721,135.585365853658,30.0000000000001));
#1614=CARTESIAN_POINT('',(-54.25,121.,30.));
#1615=CARTESIAN_POINT('',(-26.9999999999999,121.000000000001,30.));
#1616=CARTESIAN_POINT('',(-54.25,122.5,30.));
#1617=CARTESIAN_POINT('Origin',(54.25,125.499999999999,31.));
#1618=CARTESIAN_POINT('',(55.25,121.,31.));
#1619=CARTESIAN_POINT('Origin',(54.25,121.,31.));
#1620=CARTESIAN_POINT('',(55.25,127.,31.));
#1621=CARTESIAN_POINT('Origin',(54.25,126.999999999999,31.));
#1622=CARTESIAN_POINT('',(55.25,125.499999999999,31.));
#1623=CARTESIAN_POINT('Origin',(55.25,121.,45.));
#1624=CARTESIAN_POINT('',(55.25,121.,44.));
#1625=CARTESIAN_POINT('',(55.25,121.,45.));
#1626=CARTESIAN_POINT('',(54.25,121.,45.));
#1627=CARTESIAN_POINT('Origin',(54.25,121.,44.));
#1628=CARTESIAN_POINT('',(54.,121.,45.));
#1629=CARTESIAN_POINT('',(55.25,121.,45.));
#1630=CARTESIAN_POINT('',(54.,121.,45.));
#1631=CARTESIAN_POINT('Origin',(53.,124.6,44.));
#1632=CARTESIAN_POINT('',(53.,126.999999999999,45.));
#1633=CARTESIAN_POINT('',(53.,124.6,45.));
#1634=CARTESIAN_POINT('',(52.,126.999999999999,44.));
#1635=CARTESIAN_POINT('Origin',(53.,126.999999999999,44.));
#1636=CARTESIAN_POINT('',(52.,124.6,44.));
#1637=CARTESIAN_POINT('Origin',(52.,125.2,45.));
#1638=CARTESIAN_POINT('',(52.,126.999999999999,45.0000000000001));
#1639=CARTESIAN_POINT('Origin',(54.25,125.499999999999,44.));
#1640=CARTESIAN_POINT('',(55.25,126.999999999999,44.));
#1641=CARTESIAN_POINT('',(55.25,125.499999999999,44.));
#1642=CARTESIAN_POINT('',(54.25,126.999999999999,45.));
#1643=CARTESIAN_POINT('Origin',(54.25,126.999999999999,44.));
#1644=CARTESIAN_POINT('',(54.25,125.499999999999,45.));
#1645=CARTESIAN_POINT('Origin',(-53.625,123.999999999999,45.));
#1646=CARTESIAN_POINT('',(-54.25,121.,45.));
#1647=CARTESIAN_POINT('',(-54.25,122.5,45.));
#1648=CARTESIAN_POINT('',(-54.,121.,45.));
#1649=CARTESIAN_POINT('',(-55.25,121.,45.));
#1650=CARTESIAN_POINT('',(-53.2,122.,45.));
#1651=CARTESIAN_POINT('',(-54.,121.,45.));
#1652=CARTESIAN_POINT('',(-54.,122.,45.));
#1653=CARTESIAN_POINT('',(-53.2,122.,45.));
#1654=CARTESIAN_POINT('',(-54.,125.2,45.));
#1655=CARTESIAN_POINT('',(-54.,125.,45.));
#1656=CARTESIAN_POINT('',(-53.,125.2,45.));
#1657=CARTESIAN_POINT('',(-54.,125.2,45.));
#1658=CARTESIAN_POINT('',(-53.,126.999999999999,45.));
#1659=CARTESIAN_POINT('',(-53.,125.499999999999,45.));
#1660=CARTESIAN_POINT('',(0.,126.999999999999,45.));
#1661=CARTESIAN_POINT('',(54.,122.,45.));
#1662=CARTESIAN_POINT('',(54.,125.,45.));
#1663=CARTESIAN_POINT('',(53.2,122.,45.));
#1664=CARTESIAN_POINT('',(53.2,122.,45.));
#1665=CARTESIAN_POINT('',(54.,121.,45.));
#1666=CARTESIAN_POINT('',(60.,126.999999999999,45.));
#1667=CARTESIAN_POINT('',(0.,126.999999999999,45.));
#1668=CARTESIAN_POINT('',(60.,130.999999999999,45.));
#1669=CARTESIAN_POINT('',(60.,129.999999999999,45.));
#1670=CARTESIAN_POINT('',(0.,130.999999999999,45.));
#1671=CARTESIAN_POINT('Origin',(-54.25,122.5,44.));
#1672=CARTESIAN_POINT('',(-55.25,121.,44.));
#1673=CARTESIAN_POINT('Origin',(-54.25,121.,44.));
#1674=CARTESIAN_POINT('',(-55.25,122.5,44.));
#1675=CARTESIAN_POINT('Origin',(-55.25,121.,45.));
#1676=CARTESIAN_POINT('',(-55.25,121.,31.));
#1677=CARTESIAN_POINT('',(-55.25,122.5,31.));
#1678=CARTESIAN_POINT('',(-55.25,121.,45.));
#1679=CARTESIAN_POINT('Origin',(-53.,125.499999999999,44.));
#1680=CARTESIAN_POINT('',(-52.,125.2,44.));
#1681=CARTESIAN_POINT('Origin',(-53.,125.2,44.));
#1682=CARTESIAN_POINT('',(-52.,126.999999999999,44.));
#1683=CARTESIAN_POINT('',(-52.,125.499999999999,44.));
#1684=CARTESIAN_POINT('Origin',(-53.,126.999999999999,44.));
#1685=CARTESIAN_POINT('Origin',(-53.,125.499999999999,31.));
#1686=CARTESIAN_POINT('',(-52.,125.2,31.));
#1687=CARTESIAN_POINT('Origin',(-53.,125.2,31.));
#1688=CARTESIAN_POINT('',(-52.,126.999999999999,31.));
#1689=CARTESIAN_POINT('Origin',(-53.,126.999999999999,31.));
#1690=CARTESIAN_POINT('',(-52.,125.499999999999,31.));
#1691=CARTESIAN_POINT('Origin',(-52.,126.999999999999,45.));
#1692=CARTESIAN_POINT('',(-52.,125.2,45.));
#1693=CARTESIAN_POINT('',(-52.,126.999999999999,45.));
#1694=CARTESIAN_POINT('Origin',(-54.25,122.5,31.));
#1695=CARTESIAN_POINT('Origin',(-54.25,121.,31.));
#1696=CARTESIAN_POINT('Origin',(-57.,130.099999999999,41.7500000000001));
#1697=CARTESIAN_POINT('',(-57.,129.5,37.0000000000001));
#1698=CARTESIAN_POINT('Origin',(0.,129.5,32.25));
#1699=CARTESIAN_POINT('',(60.,129.5,42.7500000000001));
#1700=CARTESIAN_POINT('',(0.,129.5,42.7500000000001));
#1701=CARTESIAN_POINT('',(60.,129.5,32.25));
#1702=CARTESIAN_POINT('',(60.,129.5,34.8750000000001));
#1703=CARTESIAN_POINT('',(0.,129.5,32.25));
#1704=CARTESIAN_POINT('Origin',(54.,122.,45.));
#1705=CARTESIAN_POINT('',(54.,122.,45.));
#1706=CARTESIAN_POINT('Origin',(53.2,122.,45.));
#1707=CARTESIAN_POINT('',(53.2,122.,45.));
#1708=CARTESIAN_POINT('Origin',(54.,121.,45.));
#1709=CARTESIAN_POINT('Origin',(55.25,126.999999999999,45.));
#1710=CARTESIAN_POINT('',(55.25,126.999999999999,45.));
#1711=CARTESIAN_POINT('Origin',(0.,126.999999999999,45.));
#1712=CARTESIAN_POINT('Origin',(0.,126.999999999999,45.));
#1713=CARTESIAN_POINT('',(62.,127.,32.));
#1714=CARTESIAN_POINT('Origin',(60.,126.999999999999,32.));
#1715=CARTESIAN_POINT('',(62.,126.999999999999,43.));
#1716=CARTESIAN_POINT('',(62.,127.,30.));
#1717=CARTESIAN_POINT('Origin',(60.,126.999999999999,43.));
#1718=CARTESIAN_POINT('Origin',(58.,130.175,39.75));
#1719=CARTESIAN_POINT('',(60.,131.,39.75));
#1720=CARTESIAN_POINT('Origin',(58.,130.999999999999,39.75));
#1721=CARTESIAN_POINT('',(60.,130.175,39.75));
#1722=CARTESIAN_POINT('Origin',(58.,130.625,35.2500000000001));
#1723=CARTESIAN_POINT('',(60.,131.,35.2500000000001));
#1724=CARTESIAN_POINT('',(60.,130.625,35.2500000000001));
#1725=CARTESIAN_POINT('',(58.,131.,33.2500000000001));
#1726=CARTESIAN_POINT('Origin',(58.,131.,35.2500000000001));
#1727=CARTESIAN_POINT('',(58.,130.625,33.2500000000001));
#1728=CARTESIAN_POINT('Origin',(60.,130.25,37.5000000000001));
#1729=CARTESIAN_POINT('',(60.,131.,35.3750000000001));
#1730=CARTESIAN_POINT('',(60.,130.175,32.2500000000001));
#1731=CARTESIAN_POINT('',(60.,129.875,42.7500000000001));
#1732=CARTESIAN_POINT('Origin',(60.,128.,32.));
#1733=CARTESIAN_POINT('',(62.,131.,32.0000000000001));
#1734=CARTESIAN_POINT('Origin',(60.,131.,32.0000000000001));
#1735=CARTESIAN_POINT('',(62.,128.,32.));
#1736=CARTESIAN_POINT('Origin',(62.,128.999999999999,37.5));
#1737=CARTESIAN_POINT('',(62.,131.,43.));
#1738=CARTESIAN_POINT('',(62.,131.,33.2500000000001));
#1739=CARTESIAN_POINT('',(62.,129.999999999999,43.));
#1740=CARTESIAN_POINT('Origin',(60.,129.999999999999,43.));
#1741=CARTESIAN_POINT('Origin',(60.,131.,43.));
#1742=CARTESIAN_POINT('Origin',(0.,129.5,42.7500000000001));
#1743=CARTESIAN_POINT('Origin',(0.,130.1,32.2500000000001));
#1744=CARTESIAN_POINT('Origin',(0.,131.,41.75));
#1745=CARTESIAN_POINT('',(0.,131.,33.2500000000001));
#1746=CARTESIAN_POINT('Origin',(0.,131.,33.2500000000001));
#1747=CARTESIAN_POINT('Origin',(-54.,125.2,45.));
#1748=CARTESIAN_POINT('',(-54.,125.2,45.));
#1749=CARTESIAN_POINT('',(-54.,122.,45.));
#1750=CARTESIAN_POINT('Origin',(-52.,125.2,45.));
#1751=CARTESIAN_POINT('Origin',(-54.,121.,45.));
#1752=CARTESIAN_POINT('',(-54.,121.,45.));
#1753=CARTESIAN_POINT('Origin',(-53.2,122.,45.));
#1754=CARTESIAN_POINT('',(-53.2,122.,45.));
#1755=CARTESIAN_POINT('Origin',(-54.,122.,45.));
#1756=UNCERTAINTY_MEASURE_WITH_UNIT(LENGTH_MEASURE(0.01),#1760,
'DISTANCE_ACCURACY_VALUE',
'Maximum model space distance between geometric entities at asserted c
onnectivities');
#1757=UNCERTAINTY_MEASURE_WITH_UNIT(LENGTH_MEASURE(0.01),#1760,
'DISTANCE_ACCURACY_VALUE',
'Maximum model space distance between geometric entities at asserted c
onnectivities');
#1758=(
GEOMETRIC_REPRESENTATION_CONTEXT(3)
GLOBAL_UNCERTAINTY_ASSIGNED_CONTEXT((#1756))
GLOBAL_UNIT_ASSIGNED_CONTEXT((#1760,#1761,#1762))
REPRESENTATION_CONTEXT('','3D')
);
#1759=(
GEOMETRIC_REPRESENTATION_CONTEXT(3)
GLOBAL_UNCERTAINTY_ASSIGNED_CONTEXT((#1757))
GLOBAL_UNIT_ASSIGNED_CONTEXT((#1760,#1761,#1762))
REPRESENTATION_CONTEXT('','3D')
);
#1760=(
LENGTH_UNIT()
NAMED_UNIT(*)
SI_UNIT(.MILLI.,.METRE.)
);
#1761=(
NAMED_UNIT(*)
PLANE_ANGLE_UNIT()
SI_UNIT($,.RADIAN.)
);
#1762=(
NAMED_UNIT(*)
SI_UNIT($,.STERADIAN.)
SOLID_ANGLE_UNIT()
);
#1763=SHAPE_DEFINITION_REPRESENTATION(#1764,#1765);
#1764=PRODUCT_DEFINITION_SHAPE('',$,#1767);
#1765=SHAPE_REPRESENTATION('',(#1052),#1758);
#1766=PRODUCT_DEFINITION_CONTEXT('part definition',#1771,'design');
#1767=PRODUCT_DEFINITION('Camera Mount','Camera Mount w/ Lights',#1768,
#1766);
#1768=PRODUCT_DEFINITION_FORMATION('',$,#1773);
#1769=PRODUCT_RELATED_PRODUCT_CATEGORY('Camera Mount w/ Lights',
'Camera Mount w/ Lights',(#1773));
#1770=APPLICATION_PROTOCOL_DEFINITION('international standard',
'automotive_design',2009,#1771);
#1771=APPLICATION_CONTEXT(
'Core Data for Automotive Mechanical Design Process');
#1772=PRODUCT_CONTEXT('part definition',#1771,'mechanical');
#1773=PRODUCT('Camera Mount','Camera Mount w/ Lights',$,(#1772));
#1774=PRESENTATION_STYLE_ASSIGNMENT((#1778));
#1775=PRESENTATION_STYLE_ASSIGNMENT((#1779));
#1776=PRESENTATION_STYLE_ASSIGNMENT((#1780));
#1777=PRESENTATION_STYLE_ASSIGNMENT((#1781));
#1778=SURFACE_STYLE_USAGE(.BOTH.,#1782);
#1779=SURFACE_STYLE_USAGE(.BOTH.,#1783);
#1780=SURFACE_STYLE_USAGE(.BOTH.,#1784);
#1781=SURFACE_STYLE_USAGE(.BOTH.,#1785);
#1782=SURFACE_SIDE_STYLE('',(#1786));
#1783=SURFACE_SIDE_STYLE('',(#1787));
#1784=SURFACE_SIDE_STYLE('',(#1788));
#1785=SURFACE_SIDE_STYLE('',(#1789));
#1786=SURFACE_STYLE_FILL_AREA(#1790);
#1787=SURFACE_STYLE_FILL_AREA(#1791);
#1788=SURFACE_STYLE_FILL_AREA(#1792);
#1789=SURFACE_STYLE_FILL_AREA(#1793);
#1790=FILL_AREA_STYLE('Steel - Satin',(#1794));
#1791=FILL_AREA_STYLE('Nylon 6-6 (White)',(#1795));
#1792=FILL_AREA_STYLE('Opaque(165,132,0)',(#1796));
#1793=FILL_AREA_STYLE('Opaque(157,207,237)',(#1797));
#1794=FILL_AREA_STYLE_COLOUR('Steel - Satin',#1798);
#1795=FILL_AREA_STYLE_COLOUR('Nylon 6-6 (White)',#1799);
#1796=FILL_AREA_STYLE_COLOUR('Opaque(165,132,0)',#1800);
#1797=FILL_AREA_STYLE_COLOUR('Opaque(157,207,237)',#1801);
#1798=COLOUR_RGB('Steel - Satin',0.627450980392157,0.627450980392157,0.627450980392157);
#1799=COLOUR_RGB('Nylon 6-6 (White)',0.972549019607843,0.968627450980392,
0.929411764705882);
#1800=COLOUR_RGB('Opaque(165,132,0)',0.647058823529412,0.517647058823529,
0.);
#1801=COLOUR_RGB('Opaque(157,207,237)',0.615686274509804,0.811764705882353,
0.929411764705882);
ENDSEC;
END-ISO-10303-21;
